<svg width="32" height="32" viewBox="0 0 32 32" fill="none" xmlns="http://www.w3.org/2000/svg">
<path d="M19.832 5.51355C21.5924 5.80914 22.6544 6.23392 24.0547 6.7323C24.7835 6.98027 25.4127 7.45302 25.8525 8.078L26.0293 8.35535L26.0361 8.36609H26.0352C28.4883 12.7594 29.4744 16.9507 29.3916 21.1278V21.1317C29.379 21.6755 29.2345 22.2083 28.9717 22.6844C28.7088 23.1606 28.3352 23.5666 27.8818 23.8671L27.874 23.8719C25.9147 25.1461 24.071 25.8874 22.3896 26.5897C21.9045 26.7921 21.3446 26.5843 21.1094 26.1141L20.1348 24.1659C20.3478 24.1024 20.5523 24.0391 20.7461 23.9745C21.3862 23.7611 21.9201 23.5472 22.2949 23.3866C22.4822 23.3063 22.6314 23.2389 22.7334 23.1913C22.7839 23.1677 22.8234 23.1488 22.8506 23.1356C22.8638 23.1292 22.8745 23.1236 22.8818 23.12C22.8851 23.1184 22.8886 23.1171 22.8906 23.1161L22.8936 23.1151L22.8945 23.1141L22.9805 23.0594C23.1632 22.9158 23.2262 22.6592 23.1182 22.4432C23.01 22.2272 22.7666 22.1232 22.542 22.1835L22.4473 22.2196L22.4463 22.2206C22.445 22.2212 22.4426 22.2224 22.4404 22.2235C22.435 22.2262 22.426 22.2299 22.415 22.2352C22.3918 22.2465 22.3559 22.2634 22.3096 22.285C22.2163 22.3285 22.078 22.392 21.9014 22.4677C21.5471 22.6195 21.039 22.8231 20.4297 23.0262C19.2048 23.4345 17.5956 23.8338 16.0049 23.8339C14.414 23.8338 12.804 23.4346 11.5791 23.0262C10.9698 22.8231 10.4617 22.6195 10.1074 22.4677C9.93068 22.3919 9.79238 22.3285 9.69922 22.285C9.65274 22.2633 9.61691 22.2464 9.59375 22.2352C9.58242 22.2297 9.57371 22.2252 9.56836 22.2225C9.56596 22.2214 9.56359 22.2211 9.5625 22.2206L9.56152 22.2196C9.31459 22.0963 9.01407 22.1963 8.89062 22.4432C8.76736 22.6901 8.86755 22.9906 9.11426 23.1141H9.11523V23.1151C9.11581 23.1154 9.11719 23.1157 9.11816 23.1161C9.12019 23.1171 9.12343 23.1183 9.12695 23.12C9.13425 23.1236 9.14479 23.1291 9.1582 23.1356C9.1854 23.1488 9.22548 23.1675 9.27637 23.1913C9.37834 23.2389 9.52652 23.3063 9.71387 23.3866C10.0886 23.5472 10.6225 23.7611 11.2627 23.9745C12.044 24.2349 12.9949 24.4976 14.0146 24.663L11.2773 25.3475L10.8945 26.1141C10.6594 26.584 10.1003 26.7918 9.61523 26.5897C7.92906 25.8872 6.08478 25.1458 4.12891 23.871L4.12305 23.8671C3.66974 23.5666 3.29505 23.1606 3.03223 22.6844C2.76949 22.2083 2.62492 21.6754 2.6123 21.1317V21.1288C2.52516 16.9468 3.51128 12.7595 5.96875 8.36609L5.97461 8.35535H5.97559C6.41218 7.59729 7.10792 7.02234 7.93457 6.73718L8.94043 6.37683C9.91419 6.03188 10.8434 5.736 12.168 5.51355L12.3252 5.49988C12.6896 5.4968 13.0323 5.69415 13.2109 6.02136L13.8457 7.18542C13.8511 7.18444 13.8569 7.18348 13.8623 7.1825C14.3728 7.08968 15.1003 6.9999 16 6.99988C16.8996 6.99988 17.6272 7.08969 18.1377 7.1825C18.1428 7.18342 18.1483 7.18449 18.1533 7.18542L18.7891 6.02136L18.875 5.88855C19.0976 5.60013 19.4645 5.45208 19.832 5.51355ZM11.834 14.3329C11.2594 14.3329 10.7081 14.5965 10.3018 15.0653C9.89552 15.534 9.6671 16.17 9.66699 16.8329C9.66699 17.4959 9.89543 18.1326 10.3018 18.6014C10.7081 19.0702 11.2594 19.3329 11.834 19.3329C12.4086 19.3329 12.9599 19.0702 13.3662 18.6014C13.7725 18.1326 14.001 17.4959 14.001 16.8329C14.0009 16.17 13.7724 15.534 13.3662 15.0653C12.9599 14.5965 12.4086 14.3329 11.834 14.3329ZM20.167 14.3329C19.5926 14.333 19.0419 14.5968 18.6357 15.0653C18.2295 15.534 18.0011 16.17 18.001 16.8329C18.001 17.4959 18.2294 18.1326 18.6357 18.6014C19.0419 19.0699 19.5927 19.3328 20.167 19.3329C20.7415 19.3329 21.2929 19.0701 21.6992 18.6014C22.1055 18.1326 22.334 17.4959 22.334 16.8329C22.3339 16.17 22.1055 15.534 21.6992 15.0653C21.2929 14.5966 20.7415 14.3329 20.167 14.3329Z" fill="#333333"/>
</svg>
