<svg width="32" height="32" viewBox="0 0 32 32" fill="none" xmlns="http://www.w3.org/2000/svg">
<g clip-path="url(#clip0_2118_407)">
<path d="M16 3C23.1797 3 29 8.8203 29 16C29 23.1797 23.1797 29 16 29C8.8203 29 3 23.1797 3 16C3 8.8203 8.8203 3 16 3ZM19 10C17.9391 10 16.922 10.4217 16.1719 11.1719C15.4217 11.922 15 12.9391 15 14V17H12C11.4477 17 11 17.4477 11 18C11 18.5523 11.4477 19 12 19H15V28C15 28.5523 15.4477 29 16 29C16.5523 29 17 28.5523 17 28V19H20C20.5523 19 21 18.5523 21 18C21 17.4477 20.5523 17 20 17H17V14C17 13.4696 17.2109 12.961 17.5859 12.5859C17.961 12.2109 18.4696 12 19 12H21C21.5523 12 22 11.5523 22 11C22 10.4477 21.5523 10 21 10H19Z" fill="#333333"/>
</g>
<defs>
<clipPath id="clip0_2118_407">
<rect width="32" height="32" fill="white"/>
</clipPath>
</defs>
</svg>
