<svg width="32" height="32" viewBox="0 0 32 32" fill="none" xmlns="http://www.w3.org/2000/svg">
<path d="M27 14V13C26.9879 11.757 26.6565 10.538 26.0375 9.46002C26.3437 8.47414 26.4421 7.4355 26.3265 6.40966C26.211 5.38383 25.884 4.3931 25.3662 3.50002C25.2785 3.34796 25.1522 3.22171 25.0001 3.13393C24.8481 3.04616 24.6756 2.99998 24.5 3.00002C23.3352 2.99758 22.186 3.2676 21.1442 3.7885C20.1024 4.3094 19.1969 5.06674 18.5 6.00002H15.5C14.8031 5.06674 13.8976 4.3094 12.8558 3.7885C11.814 3.2676 10.6648 2.99758 9.5 3.00002C9.32443 2.99998 9.15193 3.04616 8.99987 3.13393C8.84781 3.22171 8.72154 3.34796 8.63375 3.50002C8.11606 4.39312 7.78903 5.3838 7.67329 6.40958C7.55754 7.43537 7.65559 8.47401 7.96125 9.46002C7.34341 10.5384 7.01245 11.7572 7 13V14C7.0021 15.692 7.61634 17.3261 8.72928 18.6006C9.84222 19.875 11.3787 20.7038 13.055 20.9338C12.3708 21.8093 11.9994 22.8888 12 24V25V27V29C12 29.2652 12.1054 29.5196 12.2929 29.7071C12.4804 29.8947 12.7348 30 13 30H21C21.2652 30 21.5196 29.8947 21.7071 29.7071C21.8946 29.5196 22 29.2652 22 29V24C22.0006 22.8888 21.6292 21.8093 20.945 20.9338C22.6213 20.7038 24.1578 19.875 25.2707 18.6006C26.3837 17.3261 26.9979 15.692 27 14Z" fill="#333333"/>
<path d="M12.1457 26.7355L13.1064 26.4581L12.5516 24.5366L11.5909 24.814L11.8683 25.7748L12.1457 26.7355ZM9.38134 25.5195L8.54077 26.0612L9.38134 25.5195ZM9.58556 23.53L8.67547 23.9444L9.58556 23.53ZM6.53944 21.7327C5.99069 21.795 5.59635 22.2904 5.65868 22.8391C5.721 23.3879 6.21638 23.7822 6.76513 23.7199L6.65229 22.7263L6.53944 21.7327ZM11.8683 25.7748C11.5909 24.814 11.5911 24.814 11.5913 24.8139C11.5913 24.8139 11.5915 24.8139 11.5916 24.8138C11.5919 24.8138 11.5921 24.8137 11.5922 24.8136C11.5926 24.8135 11.5928 24.8135 11.5929 24.8134C11.5932 24.8134 11.593 24.8134 11.5923 24.8136C11.591 24.814 11.588 24.8148 11.5834 24.8161C11.5741 24.8186 11.5584 24.8228 11.537 24.8282C11.4941 24.8391 11.4294 24.8547 11.349 24.8716C11.1854 24.9058 10.9717 24.9421 10.7535 24.9573C10.5264 24.9732 10.3463 24.9622 10.2282 24.9337C10.1082 24.9046 10.1633 24.8869 10.2219 24.9778L9.38134 25.5195L8.54077 26.0612C8.86382 26.5625 9.36198 26.7818 9.75791 26.8776C10.1557 26.9738 10.5642 26.9754 10.8927 26.9525C11.2302 26.9289 11.539 26.8752 11.7591 26.8291C11.8706 26.8057 11.963 26.7835 12.0292 26.7667C12.0624 26.7583 12.0893 26.7512 12.1089 26.7458C12.1187 26.7431 12.1268 26.7409 12.133 26.7392C12.136 26.7383 12.1386 26.7376 12.1408 26.7369C12.1418 26.7366 12.1428 26.7364 12.1436 26.7361C12.144 26.736 12.1444 26.7359 12.1447 26.7358C12.1449 26.7358 12.1452 26.7357 12.1452 26.7357C12.1455 26.7356 12.1457 26.7355 11.8683 25.7748ZM9.38134 25.5195L10.2219 24.9778C10.3392 25.1598 10.1837 25.3497 10.3607 24.9496C10.4584 24.7288 10.8759 23.9507 10.4956 23.1156L9.58556 23.53L8.67547 23.9444C8.61885 23.8201 8.72276 23.7085 8.53163 24.1406C8.41981 24.3934 8.00043 25.2228 8.54077 26.0612L9.38134 25.5195ZM9.58556 23.53L10.4956 23.1156C10.23 22.5322 9.73458 22.2072 9.30898 22.0273C8.88087 21.8463 8.41829 21.7654 8.03183 21.7275C7.63685 21.6888 7.2683 21.6904 7.00295 21.7006C6.86877 21.7057 6.75734 21.7133 6.67762 21.7197C6.63769 21.7229 6.60549 21.7259 6.58214 21.7282C6.57046 21.7293 6.56097 21.7303 6.55381 21.7311C6.55023 21.7315 6.54724 21.7318 6.54484 21.7321C6.54364 21.7322 6.54258 21.7323 6.54168 21.7324C6.54124 21.7325 6.54082 21.7325 6.54045 21.7325C6.54026 21.7326 6.54001 21.7326 6.53992 21.7326C6.53968 21.7326 6.53944 21.7327 6.65229 22.7263C6.76513 23.7199 6.76492 23.7199 6.76471 23.7199C6.76466 23.7199 6.76446 23.72 6.76435 23.72C6.76412 23.72 6.76393 23.72 6.76378 23.72C6.76347 23.7201 6.76331 23.7201 6.76328 23.7201C6.76323 23.7201 6.76374 23.72 6.7648 23.7199C6.76691 23.7197 6.77119 23.7193 6.7775 23.7186C6.79015 23.7174 6.81088 23.7155 6.83865 23.7132C6.89435 23.7087 6.97748 23.703 7.07984 23.6991C7.28756 23.6911 7.56004 23.6909 7.83684 23.718C8.12217 23.746 8.36215 23.7984 8.53017 23.8694C8.70071 23.9415 8.69499 23.9873 8.67547 23.9444L9.58556 23.53Z" fill="#333333"/>
</svg>
