<svg width="32" height="32" viewBox="0 0 32 32" fill="none" xmlns="http://www.w3.org/2000/svg">
<g clip-path="url(#clip0_2118_395)">
<path d="M27 3C28.1046 3 29 3.89543 29 5V27C29 28.1046 28.1046 29 27 29H5C3.89543 29 3 28.1046 3 27V5C3 3.89543 3.89543 3 5 3H27ZM11 13C10.4477 13 10 13.4477 10 14V22C10 22.5523 10.4477 23 11 23C11.5523 23 12 22.5523 12 22V14C12 13.4477 11.5523 13 11 13ZM18.5 13C17.5927 13 16.7137 13.2741 15.9736 13.7764C15.872 13.3319 15.4753 13 15 13C14.4477 13 14 13.4477 14 14V22C14 22.5523 14.4477 23 15 23C15.5523 23 16 22.5523 16 22V17.5C16 16.837 16.2636 16.2013 16.7324 15.7324C17.2013 15.2636 17.837 15 18.5 15C19.163 15 19.7987 15.2636 20.2676 15.7324C20.7364 16.2013 21 16.837 21 17.5V22C21 22.5523 21.4477 23 22 23C22.5523 23 23 22.5523 23 22V17.5C23 16.3065 22.5256 15.1623 21.6816 14.3184C20.8377 13.4744 19.6935 13 18.5 13ZM11 9C10.1716 9 9.5 9.67157 9.5 10.5C9.5 11.3284 10.1716 12 11 12C11.8284 12 12.5 11.3284 12.5 10.5C12.5 9.67157 11.8284 9 11 9Z" fill="#333333"/>
</g>
<defs>
<clipPath id="clip0_2118_395">
<rect width="32" height="32" fill="white"/>
</clipPath>
</defs>
</svg>
