<svg width="32" height="32" viewBox="0 0 32 32" fill="none" xmlns="http://www.w3.org/2000/svg">
<g clip-path="url(#clip0_2118_573)">
<path d="M16.8486 3.03003C19.9969 3.23558 22.9634 4.57939 25.1943 6.8103C27.4253 9.04127 28.7691 12.0077 28.9746 15.156C29.1801 18.3042 28.2333 21.4196 26.3115 23.9216C24.3896 26.4236 21.6231 28.1415 18.5283 28.7546C15.5841 29.3379 12.5346 28.8816 9.89355 27.4753L5.63379 28.8962C5.28154 29.0137 4.9034 29.0303 4.54199 28.9451C4.18047 28.8598 3.84958 28.6755 3.58691 28.4128C3.32424 28.1502 3.14001 27.8193 3.05469 27.4578C2.96946 27.0963 2.98603 26.7182 3.10352 26.366L3.10449 26.365L4.52832 22.1101C3.1226 19.4694 2.66687 16.4201 3.25 13.4763C3.86315 10.3815 5.58104 7.61505 8.08301 5.69312C10.585 3.77135 13.7005 2.82459 16.8486 3.03003ZM22.707 13.2927C22.3166 12.9023 21.6835 12.9024 21.293 13.2927L18 16.5857L14.707 13.2927C14.341 12.9267 13.7619 12.9042 13.3691 13.2244L13.293 13.2927L9.29297 17.2927C8.90246 17.6832 8.9025 18.3163 9.29297 18.7068C9.68349 19.0973 10.3165 19.0973 10.707 18.7068L14 15.4138L17.293 18.7068C17.6835 19.0973 18.3165 19.0973 18.707 18.7068L22.707 14.7068C23.0974 14.3162 23.0975 13.6832 22.707 13.2927Z" fill="#333333"/>
</g>
<defs>
<clipPath id="clip0_2118_573">
<rect width="32" height="32" fill="white"/>
</clipPath>
</defs>
</svg>
