<svg width="32" height="32" viewBox="0 0 32 32" fill="none" xmlns="http://www.w3.org/2000/svg">
<g clip-path="url(#clip0_2118_592)">
<path d="M23 6C24.1046 6 25 5.10457 25 4C25 2.89543 24.1046 2 23 2C21.8954 2 21 2.89543 21 4C21 5.10457 21.8954 6 23 6Z" fill="#333333" stroke="#333333" stroke-width="2" stroke-linecap="round" stroke-linejoin="round"/>
<path d="M16 9L17 3L21.0362 3.62125" stroke="#333333" stroke-width="2" stroke-linecap="round" stroke-linejoin="round"/>
<path d="M16 8C19.1258 8.00006 22.0321 8.72838 24.3809 9.97754C24.598 9.78965 24.8359 9.62517 25.0898 9.4873C25.6115 9.20417 26.1896 9.03983 26.7822 9.00781C27.375 8.97588 27.9684 9.07628 28.5176 9.30176C29.0666 9.52725 29.5588 9.87236 29.958 10.3115C30.3572 10.7508 30.654 11.2738 30.8262 11.8418C30.9983 12.4099 31.0413 13.0097 30.9531 13.5967C30.8648 14.1838 30.6471 14.7449 30.3154 15.2373C30.1405 15.497 29.935 15.7336 29.7061 15.9443C29.8984 16.6108 29.9989 17.3018 30 17.998V18C30 20.9057 28.2973 23.4299 25.7617 25.1855C23.2221 26.9439 19.7675 27.9999 16 28C12.2324 28 8.77797 26.9438 6.23828 25.1855C3.70258 23.4299 2 20.9059 2 18V17.998C2.00112 17.3016 2.09951 16.61 2.29199 15.9434C2.06362 15.7329 1.85916 15.4964 1.68457 15.2373C1.35285 14.7449 1.1352 14.1838 1.04688 13.5967C0.958636 13.0096 1.00169 12.4099 1.17383 11.8418C1.34603 11.2738 1.64276 10.7508 2.04199 10.3115C2.44125 9.87236 2.93338 9.52721 3.48242 9.30176C4.03161 9.07632 4.62498 8.97583 5.21777 9.00781C5.8104 9.03989 6.38856 9.20413 6.91016 9.4873C7.16385 9.62507 7.40116 9.78984 7.61816 9.97754C9.96705 8.72819 12.8739 8 16 8ZM20.8828 21.5293C20.623 21.0421 20.0165 20.8576 19.5293 21.1172C18.4432 21.6965 17.2309 21.9999 16 22C14.769 22 13.5569 21.6964 12.4707 21.1172C11.9835 20.8574 11.3771 21.0421 11.1172 21.5293C10.8574 22.0166 11.042 22.6229 11.5293 22.8828C12.9051 23.6165 14.4408 24 16 24C17.5592 23.9999 19.0949 23.6165 20.4707 22.8828C20.9577 22.6229 21.1425 22.0165 20.8828 21.5293ZM11 14C9.89543 14 9 14.8954 9 16C9 17.1046 9.89543 18 11 18C12.1044 17.9998 13 17.1044 13 16C13 14.8956 12.1044 14.0002 11 14ZM21 14C19.8954 14 19 14.8954 19 16C19 17.1046 19.8954 18 21 18C22.1044 17.9998 23 17.1044 23 16C23 14.8956 22.1044 14.0002 21 14Z" fill="#333333"/>
</g>
<defs>
<clipPath id="clip0_2118_592">
<rect width="32" height="32" fill="white"/>
</clipPath>
</defs>
</svg>
