<svg width="32" height="32" viewBox="0 0 32 32" fill="none" xmlns="http://www.w3.org/2000/svg">
<g clip-path="url(#clip0_2129_585)">
<path d="M26.7529 3.99969C26.9978 3.99621 27.3137 4.02233 27.6465 4.10223C27.9664 4.17912 28.4523 4.34174 28.9023 4.70868L28.9014 4.70966C29.506 5.2028 29.751 5.81163 29.8564 6.20966L29.9238 6.52509V6.52704C29.9716 6.8096 30.0315 7.38779 29.9805 7.9245C29.6383 11.5403 28.1828 20.1485 27.4521 24.0768C27.1081 25.9263 26.1881 27.7929 24.1602 27.9811C22.9249 28.0956 21.926 27.6608 21.1924 27.2272C20.8313 27.0138 20.4909 26.7737 20.2031 26.5681C20.0496 26.4583 19.9092 26.3578 19.7744 26.2624L19.374 25.987C18.3861 25.3362 17.6127 24.8078 16.8574 24.2907C16.2273 23.8592 15.6096 23.4386 14.8828 22.9528L15 22.9997C12.8182 21.5535 14.7755 18.7464 16.0186 17.4479C16.1264 17.3352 16.8139 16.6939 17.6924 15.8708C18.1236 15.4667 18.601 15.0189 19.0771 14.5671C19.1557 14.4926 19.2342 14.418 19.3125 14.3434C19.568 14.1002 19.821 13.8578 20.0645 13.6227C20.1943 13.4974 20.3201 13.3729 20.4434 13.2526C20.809 12.8957 21.1417 12.5664 21.4111 12.2878C21.8186 11.8665 22.0845 11.5644 22.1074 11.4665L22.1084 11.4675C22.113 11.4477 22.1152 11.4099 22.1143 11.364L22.1152 11.3972C22.1162 11.3707 22.1142 11.34 22.1104 11.3073V11.2917C22.0991 11.2152 22.0704 11.1316 22.0059 11.0739L21.9541 11.0378C21.8291 10.9683 21.668 11.0016 21.5479 11.029C21.3528 11.0733 18.2452 13.1385 12.2256 17.2243C11.4884 17.7334 9.1829 19.3375 8.02734 19.8434C7.93245 19.8209 7.83915 19.7998 7.74902 19.777C7.07179 19.6062 6.36397 19.3913 5.77246 19.1979C5.23605 19.0227 4.36928 18.7768 3.76855 18.4841C3.44322 18.3255 2.96843 18.0529 2.58887 17.5837C2.14727 17.0375 1.92941 16.3396 2.02148 15.5934H2.02051C2.1456 14.577 2.83453 13.9436 3.25781 13.6276C3.71594 13.2857 4.27343 13.0107 4.84668 12.778L9.27734 10.8405C13.3083 9.08253 16.14 7.86242 17.7656 7.18231C20.8271 5.90206 22.7233 5.13017 23.9639 4.67743C25.1694 4.23752 25.9692 4.01354 26.7461 3.99969H26.7529ZM9.11719 18.0319C9.32031 18.0684 9.50766 18.0945 9.67188 18.1071C9.72662 18.1113 9.77879 18.1138 9.82812 18.1149C9.77909 18.1138 9.72724 18.1113 9.67285 18.1071C9.5084 18.0945 9.3207 18.0685 9.11719 18.0319ZM19.0566 14.5866C18.5872 15.0318 18.1175 15.4726 17.6924 15.8708C18.1174 15.4725 18.5873 15.0318 19.0566 14.5866ZM22.0469 11.1218C22.0591 11.1389 22.0698 11.1567 22.0781 11.1755C22.0865 11.1942 22.0923 11.2137 22.0977 11.2331C22.087 11.1943 22.0708 11.1559 22.0469 11.1218ZM21.2949 7.88348C21.079 7.97214 20.8536 8.06391 20.6191 8.16083C19.9954 8.41865 19.3041 8.70629 18.5371 9.02704C17.9996 9.2519 17.3283 9.53748 16.5225 9.88251H16.5234C17.329 9.53761 18.0008 9.25281 18.5381 9.02802C19.5933 8.58674 20.5047 8.20801 21.2949 7.88348ZM23.8164 6.87177C23.704 6.9152 23.5873 6.96083 23.4658 7.00848C23.5873 6.96081 23.704 6.91522 23.8164 6.87177ZM24.6943 6.54071C24.6394 6.56065 24.5833 6.58186 24.5254 6.60321C24.5832 6.58185 24.6394 6.56067 24.6943 6.54071ZM25.2637 6.34149C25.1385 6.38334 25.0039 6.43026 24.8584 6.48212C25.0039 6.43022 25.1385 6.38336 25.2637 6.34149ZM25.4258 6.28778C25.3889 6.29967 25.3512 6.31208 25.3125 6.32489C25.4684 6.27326 25.6092 6.22946 25.7373 6.19208L25.4258 6.28778ZM23.0869 7.15887C22.5706 7.36398 21.9779 7.60306 21.2949 7.88348C21.9779 7.60301 22.5707 7.36408 23.0869 7.15887Z" fill="#333333"/>
</g>
<defs>
<clipPath id="clip0_2129_585">
<rect width="32" height="32" fill="white"/>
</clipPath>
</defs>
</svg>
