<svg width="32" height="32" viewBox="0 0 32 32" fill="none" xmlns="http://www.w3.org/2000/svg">
<g clip-path="url(#clip0_2118_490)">
<path d="M26 4C26.5304 4 27.039 4.21087 27.4141 4.58594C27.7891 4.96101 28 5.46957 28 6V19.5312L27.9883 19.75C27.9644 19.9677 27.9048 20.1806 27.8115 20.3799C27.7182 20.5792 27.5924 20.7611 27.4404 20.9189L27.2803 21.0684L21.9189 25.5371L21.917 25.5391C21.6024 25.7995 21.2166 25.9567 20.8125 25.9922L20.6377 26H15.3633L9.64062 30.7686C9.34258 31.0169 8.92753 31.0698 8.57617 30.9053C8.22479 30.7407 8 30.388 8 30V26H6C5.46957 26 4.96101 25.7891 4.58594 25.4141C4.21087 25.039 4 24.5304 4 24V6C4 5.46957 4.21087 4.96101 4.58594 4.58594C4.96101 4.21087 5.46957 4 6 4H26ZM15 10C14.4477 10 14 10.4477 14 11V17C14 17.5523 14.4477 18 15 18C15.5523 18 16 17.5523 16 17V11C16 10.4477 15.5523 10 15 10ZM21 10C20.4477 10 20 10.4477 20 11V17C20 17.5523 20.4477 18 21 18C21.5523 18 22 17.5523 22 17V11C22 10.4477 21.5523 10 21 10Z" fill="#333333"/>
</g>
<defs>
<clipPath id="clip0_2118_490">
<rect width="32" height="32" fill="white"/>
</clipPath>
</defs>
</svg>
