<svg width="32" height="32" viewBox="0 0 32 32" fill="none" xmlns="http://www.w3.org/2000/svg">
<path d="M16.3164 5.00098C16.5201 5.00298 16.814 5.00782 17.1787 5.01855C17.908 5.04002 18.9244 5.08561 20.0752 5.18262C22.3514 5.37451 25.2502 5.77476 27.4834 6.63281L27.4932 6.63672C27.9362 6.81228 28.3315 7.09067 28.6455 7.44922C28.9575 7.80556 29.1798 8.23137 29.2959 8.69043H29.2969C29.6147 9.91586 30.0049 12.195 30.0049 16C30.0049 19.805 29.6149 22.0872 29.2969 23.3105L29.2959 23.3096C29.1787 23.7683 28.9553 24.1933 28.6426 24.5488C28.368 24.861 28.032 25.1122 27.6562 25.2871L27.4854 25.3604C25.2517 26.2219 22.3516 26.6237 20.0752 26.8164C18.9244 26.9138 17.908 26.9599 17.1787 26.9814C16.8139 26.9922 16.5201 26.997 16.3164 26.999C16.2145 27 16.1346 26.9999 16.0801 27H15.9199C15.8654 26.9999 15.7855 27 15.6836 26.999C15.4799 26.997 15.1861 26.9922 14.8213 26.9814C14.092 26.9599 13.0756 26.9138 11.9248 26.8164C9.64838 26.6237 6.74829 26.2219 4.51465 25.3604L4.50488 25.3564C4.0642 25.1808 3.67097 24.9028 3.3584 24.5459C3.04725 24.1905 2.82536 23.7663 2.70898 23.3086L2.70801 23.3096C2.39014 22.0841 2.00001 19.8048 2 16C2.00001 12.2006 2.39023 9.92269 2.70215 8.70508H2.70117C2.81663 8.24277 3.04064 7.81461 3.35449 7.45605C3.66849 7.09739 4.06367 6.81818 4.50684 6.64258L4.51465 6.63965C6.74829 5.77804 9.64837 5.37629 11.9248 5.18359C13.0756 5.08619 14.092 5.04011 14.8213 5.01855C15.1861 5.00777 15.4799 5.003 15.6836 5.00098C15.7855 4.99997 15.8654 5.00008 15.9199 5H16.0801C16.1346 5.00008 16.2146 4.99997 16.3164 5.00098ZM14.2773 11.584C14.1239 11.4817 13.9263 11.4726 13.7637 11.5596C13.6014 11.6467 13.5 11.8158 13.5 12V20C13.5 20.1842 13.6014 20.3533 13.7637 20.4404C13.9263 20.5274 14.1239 20.5183 14.2773 20.416L20.2773 16.416C20.4164 16.3233 20.5 16.1672 20.5 16C20.5 15.8328 20.4164 15.6767 20.2773 15.584L14.2773 11.584Z" fill="#333333"/>
</svg>
