<svg width="32" height="32" viewBox="0 0 32 32" fill="none" xmlns="http://www.w3.org/2000/svg">
<g clip-path="url(#clip0_2129_420)">
<rect x="3" y="3" width="26" height="26" rx="6" fill="white"/>
<g clip-path="url(#clip1_2129_420)">
<path fill-rule="evenodd" clip-rule="evenodd" d="M21.4623 16.6256C21.4372 14.0936 23.5274 12.8785 23.6208 12.8184C22.446 11.0999 20.6156 10.8636 19.9634 10.8371C18.4058 10.6798 16.9246 11.7546 16.1333 11.7546C15.3441 11.7546 14.1246 10.8607 12.8331 10.8843C11.1356 10.9094 9.57063 11.8716 8.69553 13.392C6.93194 16.4518 8.24444 20.9869 9.96338 23.468C10.8031 24.6831 11.8044 26.048 13.1195 25.9993C14.3855 25.9495 14.8646 25.1791 16.396 25.1791C17.9271 25.1791 18.3571 25.9993 19.6973 25.9731C21.06 25.948 21.9233 24.7344 22.7574 23.5153C23.7227 22.1053 24.1183 20.7418 24.1423 20.6717C24.112 20.658 21.4852 19.6519 21.4586 16.6267L21.4623 16.6256H21.4623ZM18.9451 9.19308C19.6427 8.34674 20.114 7.17189 19.9852 5.99927C18.9801 6.04024 17.7613 6.66917 17.0398 7.51442C16.392 8.2648 15.8262 9.46067 15.9775 10.6093C17.0999 10.6968 18.246 10.039 18.9439 9.19455L18.9451 9.19308Z" fill="black"/>
</g>
</g>
<defs>
<clipPath id="clip0_2129_420">
<rect width="32" height="32" fill="white"/>
</clipPath>
<clipPath id="clip1_2129_420">
<rect width="20" height="20" fill="white" transform="translate(6 6)"/>
</clipPath>
</defs>
</svg>
