<svg width="32" height="32" viewBox="0 0 32 32" fill="none" xmlns="http://www.w3.org/2000/svg">
<g clip-path="url(#clip0_2126_403)">
<rect x="3" y="3" width="26" height="26" rx="6" fill="#0861FF"/>
<path d="M19 12H24" stroke="white" stroke-width="2" stroke-linecap="round" stroke-linejoin="round"/>
<path d="M7 16.1562H12.1667C12.9181 16.1563 13.6388 16.4641 14.1701 17.012C14.7015 17.56 15 18.3032 15 19.0781C15 19.8531 14.7015 20.5962 14.1701 21.1442C13.6388 21.6922 12.9181 22 12.1667 22H7V11H11.8333C12.4964 11 13.1323 11.2716 13.6011 11.7551C14.0699 12.2386 14.3333 12.8944 14.3333 13.5781C14.3333 14.2619 14.0699 14.9176 13.6011 15.4011C13.1323 15.8846 12.4964 16.1562 11.8333 16.1562" stroke="white" stroke-width="2" stroke-linecap="round" stroke-linejoin="round"/>
<path d="M24.3 20.6C23.8014 21.2649 23.0824 21.7306 22.2718 21.9138C21.4612 22.0971 20.6118 21.9859 19.8756 21.6002C19.1395 21.2145 18.5646 20.5794 18.2539 19.8086C17.9431 19.0379 17.9168 18.1816 18.1796 17.3932C18.4424 16.6048 18.9772 15.9356 19.6883 15.5054C20.3993 15.0752 21.2403 14.9121 22.0606 15.0452C22.881 15.1783 23.6272 15.599 24.1657 16.232C24.7043 16.865 25 17.6689 25 18.5H18" stroke="white" stroke-width="2" stroke-linecap="round" stroke-linejoin="round"/>
</g>
<defs>
<clipPath id="clip0_2126_403">
<rect width="32" height="32" fill="white"/>
</clipPath>
</defs>
</svg>
