<svg width="32" height="32" viewBox="0 0 32 32" fill="none" xmlns="http://www.w3.org/2000/svg">
<g clip-path="url(#clip0_2128_249)">
<rect x="3" y="3" width="26" height="26" rx="6" fill="#5865F2"/>
<path d="M22.2477 10.1422C21.0647 9.60118 19.816 9.21724 18.5334 9.00017C18.3586 9.31407 18.2003 9.63686 18.0591 9.96724C17.3769 9.86433 16.6878 9.81254 15.9979 9.81229C15.309 9.81229 14.6168 9.86464 13.9364 9.96591C13.7975 9.63791 13.6361 9.31267 13.4609 9C12.1783 9.21915 10.9294 9.60386 9.74578 10.1445C7.39497 13.6221 6.75789 17.0129 7.07643 20.3555C8.45298 21.3722 9.9936 22.1455 11.6314 22.6417C11.9987 22.146 12.3277 21.6181 12.607 21.0688C12.0741 20.8702 11.5597 20.6248 11.0701 20.3354C11.199 20.242 11.325 20.1457 11.4467 20.0522C12.8704 20.7209 14.426 21.0696 16 21.0696C17.574 21.0696 19.1295 20.7209 20.5533 20.0521C20.6765 20.1526 20.8025 20.2489 20.9299 20.3353C20.4393 20.6252 19.9241 20.8713 19.3902 21.0707C19.6705 21.6212 19.9969 22.1469 20.3659 22.6424C22.0052 22.1477 23.547 21.3745 24.9239 20.3565L24.9235 20.3569C25.2973 16.4806 24.285 13.121 22.2477 10.1422ZM13.0099 18.2998C12.1222 18.2998 11.3888 17.4943 11.3888 16.5032C11.3888 15.5122 12.0967 14.6996 13.007 14.6996C13.9174 14.6996 14.6451 15.5122 14.6295 16.5032C14.6139 17.4943 13.9146 18.2998 13.0099 18.2998ZM18.9901 18.2998C18.101 18.2998 17.3704 17.4943 17.3704 16.5032C17.3704 15.5122 18.0783 14.6996 18.9901 14.6996C19.9018 14.6996 20.6238 15.5122 20.6083 16.5032C20.5927 17.4943 19.8947 18.2998 18.9901 18.2998Z" fill="white"/>
</g>
<defs>
<clipPath id="clip0_2128_249">
<rect width="32" height="32" fill="white"/>
</clipPath>
</defs>
</svg>
