<svg width="32" height="32" viewBox="0 0 32 32" fill="none" xmlns="http://www.w3.org/2000/svg">
<g clip-path="url(#clip0_2129_428)">
<rect x="3" y="3" width="26" height="26" rx="6" fill="#252525"/>
<g clip-path="url(#clip1_2129_428)">
<path d="M15.9834 15.674C15.9834 14.197 17.1657 13.0001 18.6234 13.0001H19.0052C19.0157 13.0005 19.0271 12.9998 19.0378 12.9998C20.6735 12.9998 21.9997 14.3435 21.9997 16C21.9997 17.6564 20.6735 18.9999 19.0378 18.9999C19.0271 18.9999 19.0157 18.9995 19.0049 18.9995L18.6234 18.9999C17.1657 18.9999 15.9834 17.8022 15.9834 16.3257V15.674Z" fill="#00B6FF"/>
<path d="M10 22.0005C10 20.3437 11.3262 18.9999 12.9618 18.9999L15.9837 19.0002V21.9695C15.9837 23.6436 14.629 25 12.9764 25C11.3412 25 10 23.6569 10 22.0005Z" fill="#24CB71"/>
<path d="M15.9834 7.00035V13.0001H19.0052C19.0157 12.9998 19.0271 13.0005 19.0378 13.0005C20.6735 13.0005 21.9997 11.6567 21.9997 10.0002C21.9997 8.34343 20.6735 7 19.0378 7C19.0271 7 19.0157 7.00035 19.0049 7.00035H15.9834Z" fill="#FF7237"/>
<path d="M10 9.9999C10 11.6567 11.3262 13.0001 12.9618 13.0001H15.9837V7.00037H12.9615C11.3262 7.00037 10 8.34345 10 9.9999Z" fill="#FF3737"/>
<path d="M10 16C10 17.6568 11.3262 19.0003 12.9618 19.0003H15.9837V13.0005H12.9615C11.3262 13.0005 10 14.3436 10 16Z" fill="#874FFF"/>
</g>
</g>
<defs>
<clipPath id="clip0_2129_428">
<rect width="32" height="32" fill="white"/>
</clipPath>
<clipPath id="clip1_2129_428">
<rect width="12" height="18" fill="white" transform="translate(10 7)"/>
</clipPath>
</defs>
</svg>
