<svg width="32" height="32" viewBox="0 0 32 32" fill="none" xmlns="http://www.w3.org/2000/svg">
<g clip-path="url(#clip0_2126_415)">
<rect x="3" y="3" width="26" height="26" rx="6" fill="black"/>
<path d="M24 16.5556V15.7778C23.9904 14.811 23.7252 13.8629 23.23 13.0245C23.4749 12.2577 23.5537 11.4498 23.4612 10.652C23.3688 9.85409 23.1072 9.08352 22.693 8.3889C22.6228 8.27064 22.5218 8.17244 22.4001 8.10417C22.2785 8.03591 22.1405 7.99998 22 8.00001C21.0682 7.99812 20.1488 8.20813 19.3154 8.61327C18.482 9.01842 17.7575 9.60746 17.2 10.3333H14.8C14.2425 9.60746 13.518 9.01842 12.6846 8.61327C11.8512 8.20813 10.9318 7.99812 10 8.00001C9.85954 7.99998 9.72155 8.03591 9.5999 8.10417C9.47825 8.17244 9.37723 8.27064 9.307 8.3889C8.89285 9.08354 8.63123 9.85406 8.53863 10.6519C8.44603 11.4497 8.52447 12.2576 8.769 13.0245C8.27473 13.8632 8.00996 14.8112 8 15.7778V16.5556C8.00168 17.8716 8.49307 19.1425 9.38342 20.1338C10.2738 21.125 11.503 21.7696 12.844 21.9485C12.2966 22.6295 11.9995 23.4691 12 24.3333V25.1111V26.6667V28.2222C12 28.4285 12.0843 28.6263 12.2343 28.7722C12.3843 28.9181 12.5878 29 12.8 29H19.2C19.4122 29 19.6157 28.9181 19.7657 28.7722C19.9157 28.6263 20 28.4285 20 28.2222V24.3333C20.0005 23.4691 19.7034 22.6295 19.156 21.9485C20.497 21.7696 21.7262 21.125 22.6166 20.1338C23.5069 19.1425 23.9983 17.8716 24 16.5556Z" fill="white"/>
<path d="M12.007 26.2552L12.4874 26.1165L12.2099 25.1557L11.7296 25.2944L11.8683 25.7748L12.007 26.2552ZM9.38134 25.5195L8.96105 25.7904L9.38134 25.5195ZM9.58556 23.53L9.13051 23.7372L9.58556 23.53ZM6.59587 22.2295C6.32149 22.2606 6.12432 22.5083 6.15548 22.7827C6.18664 23.0571 6.43433 23.2542 6.70871 23.2231L6.65229 22.7263L6.59587 22.2295ZM11.8683 25.7748C11.7296 25.2944 11.7297 25.2944 11.7298 25.2944C11.7298 25.2944 11.7299 25.2943 11.7299 25.2943C11.73 25.2943 11.7301 25.2943 11.7301 25.2943C11.7301 25.2943 11.7301 25.2943 11.7299 25.2943C11.7295 25.2944 11.7287 25.2947 11.7275 25.295C11.725 25.2957 11.7207 25.2969 11.7148 25.2985C11.7029 25.3017 11.6844 25.3067 11.6601 25.3129C11.6113 25.3252 11.5397 25.3425 11.4516 25.3609C11.2738 25.3982 11.0363 25.4388 10.7883 25.4561C10.5359 25.4737 10.2986 25.4651 10.1106 25.4196C9.92166 25.3739 9.83843 25.3058 9.80163 25.2487L9.38134 25.5195L8.96105 25.7904C9.18869 26.1436 9.54854 26.3125 9.87547 26.3916C10.2033 26.4709 10.5548 26.4748 10.8579 26.4537C11.1656 26.4322 11.4506 26.3828 11.6566 26.3397C11.7603 26.318 11.8458 26.2974 11.9062 26.2821C11.9364 26.2744 11.9605 26.268 11.9775 26.2634C11.9861 26.261 11.9929 26.2592 11.9978 26.2578C12.0003 26.2571 12.0023 26.2565 12.0038 26.2561C12.0046 26.2559 12.0052 26.2557 12.0058 26.2555C12.006 26.2554 12.0063 26.2554 12.0065 26.2553C12.0066 26.2553 12.0067 26.2552 12.0067 26.2552C12.0069 26.2552 12.007 26.2552 11.8683 25.7748ZM9.38134 25.5195L9.80163 25.2487C9.75448 25.1755 9.74275 25.1107 9.90344 24.7474C10.0245 24.4737 10.3117 23.9181 10.0406 23.3228L9.58556 23.53L9.13051 23.7372C9.18312 23.8527 9.15666 23.9636 8.9889 24.3429C8.86079 24.6325 8.58511 25.207 8.96105 25.7904L9.38134 25.5195ZM9.58556 23.53L10.0406 23.3228C9.84625 22.896 9.47611 22.6408 9.11428 22.4878C8.75119 22.3343 8.34426 22.2605 7.98309 22.2252C7.61765 22.1894 7.27312 22.1906 7.02217 22.2002C6.89595 22.2051 6.79159 22.2121 6.71788 22.2181C6.68099 22.2211 6.65166 22.2238 6.63098 22.2258C6.62064 22.2268 6.61246 22.2277 6.60656 22.2283C6.60361 22.2286 6.60124 22.2289 6.59945 22.2291C6.59855 22.2292 6.59781 22.2292 6.59721 22.2293C6.59691 22.2293 6.59665 22.2294 6.59642 22.2294C6.59631 22.2294 6.59617 22.2294 6.59612 22.2294C6.59599 22.2295 6.59587 22.2295 6.65229 22.7263C6.70871 23.2231 6.70861 23.2231 6.70852 23.2231C6.7085 23.2231 6.70841 23.2231 6.70837 23.2231C6.7083 23.2231 6.70826 23.2231 6.70826 23.2231C6.70825 23.2231 6.70839 23.2231 6.70867 23.2231C6.70923 23.223 6.71037 23.2229 6.71205 23.2227C6.71542 23.2224 6.721 23.2218 6.72866 23.221C6.74399 23.2195 6.76758 23.2173 6.7984 23.2148C6.8601 23.2099 6.9503 23.2037 7.06062 23.1995C7.28275 23.1909 7.57924 23.1904 7.88559 23.2204C8.1962 23.2508 8.49183 23.3104 8.72487 23.4089C8.95918 23.508 9.07875 23.6235 9.13051 23.7372L9.58556 23.53Z" fill="white"/>
</g>
<defs>
<clipPath id="clip0_2126_415">
<rect width="32" height="32" fill="white"/>
</clipPath>
</defs>
</svg>
