<svg width="32" height="32" viewBox="0 0 32 32" fill="none" xmlns="http://www.w3.org/2000/svg">
<g clip-path="url(#clip0_2129_424)">
<rect x="3" y="3" width="26" height="26" rx="6" fill="white"/>
<path d="M24.633 14.3334H15.9997V17.8834H20.933C20.7163 19.025 20.0663 19.9917 19.0913 20.6417C18.2747 21.1917 17.233 21.525 15.9997 21.525C13.6163 21.525 11.5913 19.9167 10.8663 17.75H10.8555L10.8663 17.7417C10.683 17.1917 10.5747 16.6084 10.5747 16C10.5747 15.3917 10.683 14.8084 10.8663 14.2584C11.5913 12.0917 13.6163 10.4834 15.9997 10.4834C17.3497 10.4834 18.5497 10.95 19.508 11.85L22.133 9.22504C20.5413 7.74171 18.4747 6.83337 15.9997 6.83337C12.4163 6.83337 9.32467 8.89171 7.81634 11.8917C7.19134 13.125 6.83301 14.5167 6.83301 16C6.83301 17.4834 7.19134 18.875 7.81634 20.1084V20.1167C9.32467 23.1084 12.4163 25.1667 15.9997 25.1667C18.4747 25.1667 20.5497 24.35 22.0663 22.95C23.7997 21.35 24.7997 19 24.7997 16.2084C24.7997 15.5584 24.7413 14.9334 24.633 14.3334Z" fill="#FC4C53"/>
<mask id="mask0_2129_424" style="mask-type:luminance" maskUnits="userSpaceOnUse" x="6" y="6" width="19" height="20">
<path d="M24.633 14.3334H15.9997V17.8834H20.933C20.7163 19.025 20.0663 19.9917 19.0913 20.6417C18.2747 21.1917 17.233 21.525 15.9997 21.525C13.6163 21.525 11.5913 19.9167 10.8663 17.75H10.8555L10.8663 17.7417C10.683 17.1917 10.5747 16.6084 10.5747 16C10.5747 15.3917 10.683 14.8084 10.8663 14.2584C11.5913 12.0917 13.6163 10.4834 15.9997 10.4834C17.3497 10.4834 18.5497 10.95 19.508 11.85L22.133 9.22504C20.5413 7.74171 18.4747 6.83337 15.9997 6.83337C12.4163 6.83337 9.32467 8.89171 7.81634 11.8917C7.19134 13.125 6.83301 14.5167 6.83301 16C6.83301 17.4834 7.19134 18.875 7.81634 20.1084V20.1167C9.32467 23.1084 12.4163 25.1667 15.9997 25.1667C18.4747 25.1667 20.5497 24.35 22.0663 22.95C23.7997 21.35 24.7997 19 24.7997 16.2084C24.7997 15.5584 24.7413 14.9334 24.633 14.3334Z" fill="white"/>
</mask>
<g mask="url(#mask0_2129_424)">
<path d="M9.0377 26.0341C12.6068 26.0341 15.5002 22.1282 15.5002 17.31C15.5002 12.4918 12.6068 8.58582 9.0377 8.58582C5.46856 8.58582 2.5752 12.4918 2.5752 17.31C2.5752 22.1282 5.46856 26.0341 9.0377 26.0341Z" fill="url(#paint0_radial_2129_424)"/>
<path d="M20.1837 34.8849C27.3834 33.9855 32.6666 28.8268 31.984 23.3626C31.3015 17.8983 24.9117 14.1977 17.712 15.097C10.5123 15.9963 5.2291 21.155 5.91164 26.6193C6.59419 32.0836 12.984 35.7842 20.1837 34.8849Z" fill="url(#paint1_radial_2129_424)"/>
<path d="M15.2539 12.9L15.6631 17.5634L16.1822 20.6859L22.3172 26.3925L29.4897 13.145L15.2539 12.9Z" fill="url(#paint2_linear_2129_424)"/>
</g>
</g>
<defs>
<radialGradient id="paint0_radial_2129_424" cx="0" cy="0" r="1" gradientUnits="userSpaceOnUse" gradientTransform="translate(9.03847 17.3098) scale(6.46241 8.72329)">
<stop offset="0.368" stop-color="#FFCF09"/>
<stop offset="0.718" stop-color="#FFCF09" stop-opacity="0.7"/>
<stop offset="1" stop-color="#FFCF09" stop-opacity="0"/>
</radialGradient>
<radialGradient id="paint1_radial_2129_424" cx="0" cy="0" r="1" gradientUnits="userSpaceOnUse" gradientTransform="translate(18.9481 24.9909) rotate(-7.12) scale(13.1371 9.97059)">
<stop offset="0.383" stop-color="#34A853"/>
<stop offset="0.706" stop-color="#34A853" stop-opacity="0.7"/>
<stop offset="1" stop-color="#34A853" stop-opacity="0"/>
</radialGradient>
<linearGradient id="paint2_linear_2129_424" x1="25.6314" y1="11.2384" x2="16.1231" y2="22.9159" gradientUnits="userSpaceOnUse">
<stop offset="0.671" stop-color="#4285F4"/>
<stop offset="0.885" stop-color="#4285F4" stop-opacity="0"/>
</linearGradient>
<clipPath id="clip0_2129_424">
<rect width="32" height="32" fill="white"/>
</clipPath>
</defs>
</svg>
