<svg width="32" height="32" viewBox="0 0 32 32" fill="none" xmlns="http://www.w3.org/2000/svg">
<g clip-path="url(#clip0_2126_311)">
<path d="M16.0042 3C10.5769 3 8.98956 3.0056 8.68102 3.0312C7.56723 3.12381 6.87416 3.29923 6.1191 3.67526C5.53721 3.96428 5.0783 4.29931 4.62538 4.76895C3.80054 5.62542 3.30063 6.67911 3.11967 7.93162C3.03168 8.53967 3.00609 8.66368 3.00089 11.7695C2.99889 12.8048 3.00089 14.1673 3.00089 15.9949C3.00089 21.4194 3.00689 23.0055 3.03288 23.3135C3.12287 24.3976 3.29283 25.0797 3.65277 25.8257C4.34064 27.2539 5.65439 28.3259 7.2021 28.726C7.738 28.864 8.32989 28.94 9.08974 28.976C9.41168 28.99 12.6931 29 15.9764 29C19.2598 29 22.5432 28.996 22.8572 28.98C23.737 28.9386 24.2479 28.87 24.8128 28.724C25.5802 28.5271 26.2954 28.1651 26.9085 27.6631C27.5215 27.1611 28.0176 26.5313 28.3621 25.8177C28.7151 25.0897 28.894 24.3816 28.975 23.3541C28.9926 23.1301 29 19.5584 29 15.9915C29 12.424 28.992 8.8589 28.9744 8.63488C28.8924 7.59079 28.7135 6.88873 28.3491 6.14667C28.0502 5.53922 27.7182 5.08558 27.2363 4.62174C26.3763 3.80007 25.3245 3.30003 24.0711 3.11921C23.4638 3.0314 23.3429 3.0054 20.2354 3H16.0042Z" fill="url(#paint0_radial_2126_311)"/>
<path d="M16.0042 3C10.5769 3 8.98956 3.0056 8.68102 3.0312C7.56723 3.12381 6.87416 3.29923 6.1191 3.67526C5.53721 3.96428 5.0783 4.29931 4.62538 4.76895C3.80054 5.62542 3.30063 6.67911 3.11967 7.93162C3.03168 8.53967 3.00609 8.66368 3.00089 11.7695C2.99889 12.8048 3.00089 14.1673 3.00089 15.9949C3.00089 21.4194 3.00689 23.0055 3.03288 23.3135C3.12287 24.3976 3.29283 25.0797 3.65277 25.8257C4.34064 27.2539 5.65439 28.3259 7.2021 28.726C7.738 28.864 8.32989 28.94 9.08974 28.976C9.41168 28.99 12.6931 29 15.9764 29C19.2598 29 22.5432 28.996 22.8572 28.98C23.737 28.9386 24.2479 28.87 24.8128 28.724C25.5802 28.5271 26.2954 28.1651 26.9085 27.6631C27.5215 27.1611 28.0176 26.5313 28.3621 25.8177C28.7151 25.0897 28.894 24.3816 28.975 23.3541C28.9926 23.1301 29 19.5584 29 15.9915C29 12.424 28.992 8.8589 28.9744 8.63488C28.8924 7.59079 28.7135 6.88873 28.3491 6.14667C28.0502 5.53922 27.7182 5.08558 27.2363 4.62174C26.3763 3.80007 25.3245 3.30003 24.0711 3.11921C23.4638 3.0314 23.3429 3.0054 20.2354 3H16.0042Z" fill="url(#paint1_radial_2126_311)"/>
<path d="M15.9984 6.40027C13.3917 6.40027 13.0646 6.41167 12.0408 6.45827C11.0189 6.50508 10.3215 6.66689 9.71119 6.90431C9.07991 7.14953 8.54441 7.47756 8.01091 8.0114C7.47701 8.54505 7.14907 9.08069 6.90312 9.71195C6.66516 10.3226 6.50319 11.0205 6.4572 12.0421C6.41141 13.0662 6.39941 13.3937 6.39941 16.0011C6.39941 18.6085 6.41101 18.9347 6.4574 19.9588C6.50439 20.9809 6.66616 21.6786 6.90332 22.289C7.14867 22.9205 7.47661 23.4561 8.01031 23.9898C8.54361 24.5238 9.07911 24.8526 9.70999 25.0978C10.3207 25.3353 11.0183 25.4971 12.04 25.5439C13.0638 25.5905 13.3907 25.6019 15.9972 25.6019C18.6041 25.6019 18.9303 25.5905 19.9541 25.5439C20.9759 25.4971 21.6741 25.3353 22.2848 25.0978C22.9159 24.8526 23.4506 24.5238 23.9839 23.9898C24.5178 23.4561 24.8457 22.9205 25.0917 22.2892C25.3277 21.6786 25.4896 20.9807 25.5376 19.959C25.5836 18.9349 25.5956 18.6085 25.5956 16.0011C25.5956 13.3937 25.5836 13.0664 25.5376 12.0423C25.4896 11.0203 25.3277 10.3226 25.0917 9.71215C24.8457 9.08069 24.5178 8.54505 23.9839 8.0114C23.45 7.47736 22.9161 7.14933 22.2842 6.90431C21.6723 6.66689 20.9745 6.50508 19.9527 6.45827C18.9289 6.41167 18.6029 6.40027 15.9954 6.40027H15.9984ZM15.1374 8.13041C15.3929 8.13001 15.6781 8.13041 15.9984 8.13041C18.5611 8.13041 18.8649 8.13962 19.8769 8.18562C20.8127 8.22842 21.3206 8.38484 21.6589 8.51625C22.1069 8.69026 22.4262 8.89828 22.7619 9.23431C23.0979 9.57034 23.3058 9.89036 23.4802 10.3384C23.6116 10.6764 23.7681 11.1845 23.8107 12.1206C23.8567 13.1326 23.8667 13.4367 23.8667 15.9989C23.8667 18.5611 23.8567 18.8651 23.8107 19.8772C23.7679 20.8133 23.6116 21.3213 23.4802 21.6594C23.3062 22.1074 23.0979 22.4264 22.7619 22.7623C22.426 23.0981 22.1071 23.3063 21.6589 23.4803C21.321 23.6123 20.8127 23.7683 19.8769 23.8111C18.8651 23.8571 18.5611 23.8671 15.9984 23.8671C13.4357 23.8671 13.1317 23.8571 12.1199 23.8111C11.1841 23.7679 10.6762 23.6115 10.3377 23.4801C9.88976 23.3061 9.56982 23.0981 9.23388 22.7621C8.89794 22.426 8.68998 22.1068 8.51562 21.6586C8.38424 21.3205 8.22767 20.8125 8.18508 19.8764C8.13909 18.8643 8.12989 18.5603 8.12989 15.9965C8.12989 13.4327 8.13909 13.1302 8.18508 12.1182C8.22787 11.1821 8.38424 10.674 8.51562 10.3356C8.68958 9.88756 8.89794 9.56754 9.23388 9.23151C9.56982 8.89548 9.88976 8.68746 10.3377 8.51305C10.676 8.38104 11.1841 8.22502 12.1199 8.18202C13.0054 8.14202 13.3485 8.13001 15.1374 8.12801V8.13041ZM21.1218 9.72455C20.894 9.72455 20.6713 9.79213 20.4819 9.91874C20.2925 10.0454 20.1449 10.2253 20.0577 10.4359C19.9705 10.6464 19.9477 10.8781 19.9922 11.1016C20.0367 11.3251 20.1464 11.5303 20.3076 11.6914C20.4687 11.8526 20.6739 11.9622 20.8974 12.0067C21.1208 12.0511 21.3524 12.0282 21.5629 11.9409C21.7733 11.8537 21.9532 11.7059 22.0797 11.5164C22.2062 11.3269 22.2737 11.1041 22.2736 10.8762C22.2736 10.2402 21.7577 9.72415 21.1218 9.72415V9.72455ZM15.9984 11.0707C13.2763 11.0707 11.0693 13.2782 11.0693 16.0011C11.0693 18.7239 13.2763 20.9305 15.9984 20.9305C18.7205 20.9305 20.9267 18.7239 20.9267 16.0011C20.9267 13.2782 18.7205 11.0707 15.9984 11.0707ZM15.9984 12.8008C17.7653 12.8008 19.1978 14.2335 19.1978 16.0011C19.1978 17.7686 17.7653 19.2014 15.9984 19.2014C14.2315 19.2014 12.799 17.7684 12.799 16.0011C12.799 14.2337 14.2313 12.8008 15.9984 12.8008Z" fill="white"/>
</g>
<defs>
<radialGradient id="paint0_radial_2126_311" cx="0" cy="0" r="1" gradientUnits="userSpaceOnUse" gradientTransform="translate(9.90628 31.0025) rotate(-90) scale(25.7679 23.9662)">
<stop stop-color="#FFDD55"/>
<stop offset="0.1" stop-color="#FFDD55"/>
<stop offset="0.5" stop-color="#FF543E"/>
<stop offset="1" stop-color="#C837AB"/>
</radialGradient>
<radialGradient id="paint1_radial_2126_311" cx="0" cy="0" r="1" gradientTransform="matrix(2.26091 11.2943 -46.5546 9.32451 -1.3567 4.87473)" gradientUnits="userSpaceOnUse">
<stop stop-color="#3771C8"/>
<stop offset="0.128" stop-color="#3771C8"/>
<stop offset="1" stop-color="#6600FF" stop-opacity="0"/>
</radialGradient>
<clipPath id="clip0_2126_311">
<rect width="32" height="32" fill="white"/>
</clipPath>
</defs>
</svg>
