<svg width="32" height="32" viewBox="0 0 32 32" fill="none" xmlns="http://www.w3.org/2000/svg">
<g clip-path="url(#clip0_2129_575)">
<rect x="3" y="3" width="26" height="26" rx="6" fill="white"/>
<g clip-path="url(#clip1_2129_575)">
<path d="M26.7421 15.6777C26.7421 21.665 22.0513 26.0975 16 26.0975C14.9132 26.0975 13.8704 25.9542 12.8903 25.6848C12.7 25.6322 12.4974 25.647 12.3167 25.7266L10.1844 26.6679C9.62679 26.9143 8.99725 26.5175 8.97856 25.9081L8.91995 23.997C8.91265 23.7617 8.80677 23.5414 8.6312 23.3848C6.54107 21.5155 5.25781 18.8096 5.25781 15.6777C5.25781 9.69066 9.94863 5.25787 16 5.25787C22.0513 5.25787 26.7421 9.69066 26.7421 15.6777Z" fill="#0866FF"/>
<path d="M18.9171 18.6772L22.6571 12.8972C23.0331 12.3163 22.3366 11.6401 21.767 12.033L17.8629 14.7258C17.7986 14.7702 17.7225 14.7946 17.6443 14.7957C17.5662 14.7969 17.4894 14.7748 17.4238 14.7324L13.9587 12.4905C13.6654 12.3008 13.2738 12.3846 13.0841 12.6779L9.34385 18.4583C8.96778 19.0392 9.66435 19.7154 10.2339 19.3224L14.1389 16.6294C14.2032 16.585 14.2793 16.5606 14.3575 16.5595C14.4357 16.5583 14.5125 16.5804 14.5782 16.6228L18.0427 18.8647C18.3361 19.0544 18.7277 18.9706 18.9173 18.6772H18.9171Z" fill="white"/>
</g>
</g>
<defs>
<clipPath id="clip0_2129_575">
<rect width="32" height="32" fill="white"/>
</clipPath>
<clipPath id="clip1_2129_575">
<rect width="22" height="22" fill="white" transform="translate(5 5)"/>
</clipPath>
</defs>
</svg>
