<svg width="32" height="32" viewBox="0 0 32 32" fill="none" xmlns="http://www.w3.org/2000/svg">
<g clip-path="url(#clip0_2129_555)">
<rect x="3" y="3" width="26" height="26" rx="6" fill="white"/>
<path d="M5 16C5 20.6961 7.94336 24.7055 12.086 26.2833C11.985 25.4243 11.878 24.0081 12.1088 23.0146C12.3077 22.16 13.3931 17.5714 13.3931 17.5714C13.3931 17.5714 13.0657 16.9161 13.0657 15.945C13.0657 14.4235 13.9478 13.2865 15.047 13.2865C15.982 13.2865 16.4327 13.9882 16.4327 14.8287C16.4327 15.7684 15.8341 17.1726 15.5252 18.4754C15.2678 19.5651 16.0726 20.4541 17.1468 20.4541C19.0929 20.4541 20.5899 18.4015 20.5899 15.4393C20.5899 12.8164 18.7053 10.9843 16.0146 10.9843C12.9002 10.9843 11.0715 13.3209 11.0715 15.7362C11.0715 16.6776 11.4333 17.6861 11.8862 18.2352C11.9434 18.2957 11.9752 18.3758 11.9751 18.4591C11.9751 18.4892 11.9708 18.5197 11.9627 18.5489C11.8793 18.8957 11.6937 19.639 11.6584 19.7907C11.6099 19.9905 11.4999 20.0339 11.2915 19.9368C9.92422 19.3004 9.06957 17.3011 9.06957 15.6954C9.06957 12.2402 11.5789 9.06871 16.3038 9.06871C20.1027 9.06871 23.0555 11.7757 23.0555 15.3929C23.0555 19.1668 20.6763 22.2047 17.3729 22.2047C16.2625 22.2047 15.2205 21.6268 14.863 20.9457C14.863 20.9457 14.3139 23.0374 14.1807 23.5492C13.9225 24.543 13.2053 25.8003 12.761 26.5145C13.7854 26.8307 14.8725 27 16 27C22.0749 27 27 22.0745 27 16C27 9.92551 22.0749 5 16 5C9.92508 5 5 9.92508 5 16Z" fill="#E60019"/>
</g>
<defs>
<clipPath id="clip0_2129_555">
<rect width="32" height="32" fill="white"/>
</clipPath>
</defs>
</svg>
