<svg width="32" height="32" viewBox="0 0 32 32" fill="none" xmlns="http://www.w3.org/2000/svg">
<g clip-path="url(#clip0_2128_341)">
<rect x="3" y="3" width="26" height="26" rx="6" fill="#FF4500"/>
<path d="M23.0831 18.639C24.6941 18.639 26.0001 17.333 26.0001 15.7219C26.0001 14.1109 24.6941 12.8049 23.0831 12.8049C21.472 12.8049 20.166 14.1109 20.166 15.7219C20.166 17.333 21.472 18.639 23.0831 18.639Z" fill="url(#paint0_radial_2128_341)"/>
<path d="M8.91705 18.639C10.5281 18.639 11.8341 17.333 11.8341 15.7219C11.8341 14.1109 10.5281 12.8049 8.91705 12.8049C7.30601 12.8049 6 14.1109 6 15.7219C6 17.333 7.30601 18.639 8.91705 18.639Z" fill="url(#paint1_radial_2128_341)"/>
<path d="M16.0104 24.4634C20.6064 24.4634 24.3323 21.6679 24.3323 18.2195C24.3323 14.7711 20.6064 11.9756 16.0104 11.9756C11.4143 11.9756 7.68848 14.7711 7.68848 18.2195C7.68848 21.6679 11.4143 24.4634 16.0104 24.4634Z" fill="url(#paint2_radial_2128_341)"/>
<path d="M13.5408 17.6147C13.492 18.6683 12.7896 19.0586 11.9701 19.0586C11.1505 19.0586 10.5262 18.5122 10.5749 17.4586C10.6237 16.4049 11.3262 15.7025 12.1457 15.7025C12.9652 15.7025 13.5896 16.561 13.5408 17.6147ZM21.4236 17.4586C21.4724 18.5122 20.848 19.0586 20.0285 19.0586C19.209 19.0586 18.5066 18.6781 18.4578 17.6147C18.409 16.561 19.0334 15.7025 19.8529 15.7025C20.6724 15.7025 21.3749 16.3951 21.4236 17.4586Z" fill="#842123"/>
<path d="M18.4686 17.7122C18.5174 18.6976 19.1711 19.0586 19.932 19.0586C20.693 19.0586 21.2784 18.522 21.2393 17.5268C21.1905 16.5415 20.5369 15.8878 19.7759 15.8878C19.015 15.8878 18.4198 16.7171 18.4686 17.7122Z" fill="url(#paint3_radial_2128_341)"/>
<path d="M13.5411 17.7122C13.4924 18.6976 12.8387 19.0586 12.0777 19.0586C11.3168 19.0586 10.7314 18.522 10.7802 17.5268C10.829 16.5415 11.4826 15.8878 12.2436 15.8878C13.0046 15.8878 13.5899 16.7171 13.5411 17.7122Z" fill="url(#paint4_radial_2128_341)"/>
<path d="M16.0092 19.761C14.9751 19.761 13.9897 19.8098 13.0726 19.8976C12.9165 19.9171 12.819 20.0732 12.8775 20.2098C13.3848 21.4098 14.5946 22.2586 16.0092 22.2586C17.4238 22.2586 18.6238 21.4195 19.1409 20.2098C19.1994 20.0634 19.1019 19.9073 18.9458 19.8976C18.0287 19.8098 17.0433 19.761 16.0092 19.761Z" fill="#BBCFDA"/>
<path d="M16.0092 19.9952C14.9751 19.9952 13.9897 20.044 13.0824 20.1415C12.9263 20.161 12.8288 20.3171 12.8873 20.4635C13.3946 21.683 14.6043 22.5415 16.0092 22.5415C17.4141 22.5415 18.6238 21.683 19.1311 20.4635C19.1897 20.3171 19.0921 20.161 18.936 20.1415C18.019 20.044 17.0336 19.9952 16.0092 19.9952Z" fill="white"/>
<path d="M16.0102 19.8683C14.9956 19.8683 14.0298 19.9171 13.1322 20.0049C12.9761 20.0244 12.8786 20.1805 12.9371 20.3171C13.4444 21.5171 14.6249 22.3659 16.0102 22.3659C17.3956 22.3659 18.5761 21.5269 19.0834 20.3171C19.1419 20.1708 19.0444 20.0147 18.8883 20.0049C17.9907 19.9269 17.0249 19.8683 16.0102 19.8683Z" fill="url(#paint5_radial_2128_341)"/>
<path d="M20.5663 11.1366C21.7086 11.1366 22.6346 10.2106 22.6346 9.0683C22.6346 7.92601 21.7086 7 20.5663 7C19.424 7 18.498 7.92601 18.498 9.0683C18.498 10.2106 19.424 11.1366 20.5663 11.1366Z" fill="url(#paint6_radial_2128_341)"/>
<path d="M15.981 12.239C15.7371 12.239 15.5322 12.1317 15.5322 11.9756C15.5322 10.1219 17.0347 8.61951 18.8883 8.61951C19.1322 8.61951 19.3371 8.82439 19.3371 9.06829C19.3371 9.31219 19.1322 9.51707 18.8883 9.51707C17.5322 9.51707 16.4298 10.6195 16.4298 11.9756C16.4298 12.1415 16.2249 12.239 15.981 12.239Z" fill="url(#paint7_radial_2128_341)"/>
<path d="M13.0041 18.2C13.0041 18.5805 12.5943 18.7561 12.0968 18.7561C11.5992 18.7561 11.1895 18.5805 11.1895 18.2C11.1895 17.8195 11.5992 17.5073 12.0968 17.5073C12.5943 17.5073 13.0041 17.8098 13.0041 18.2ZM20.8284 18.2C20.8284 18.5805 20.4187 18.7561 19.9211 18.7561C19.4235 18.7561 19.0138 18.5805 19.0138 18.2C19.0138 17.8195 19.4235 17.5073 19.9211 17.5073C20.4187 17.5073 20.8284 17.8098 20.8284 18.2Z" fill="#FF6101"/>
<path d="M12.7223 17.1561C12.9001 17.1561 13.0443 16.9989 13.0443 16.8049C13.0443 16.6109 12.9001 16.4537 12.7223 16.4537C12.5445 16.4537 12.4004 16.6109 12.4004 16.8049C12.4004 16.9989 12.5445 17.1561 12.7223 17.1561Z" fill="#FFC49C"/>
<path d="M20.4196 17.1561C20.5974 17.1561 20.7416 16.9989 20.7416 16.8049C20.7416 16.6109 20.5974 16.4537 20.4196 16.4537C20.2418 16.4537 20.0977 16.6109 20.0977 16.8049C20.0977 16.9989 20.2418 17.1561 20.4196 17.1561Z" fill="#FFC49C"/>
</g>
<defs>
<radialGradient id="paint0_radial_2128_341" cx="0" cy="0" r="1" gradientUnits="userSpaceOnUse" gradientTransform="translate(23.1233 14.147) scale(5.84401 5.09801)">
<stop stop-color="#FEFFFF"/>
<stop offset="0.4" stop-color="#FEFFFF"/>
<stop offset="0.51" stop-color="#F9FCFC"/>
<stop offset="0.62" stop-color="#EDF3F5"/>
<stop offset="0.7" stop-color="#DEE9EC"/>
<stop offset="0.72" stop-color="#D8E4E8"/>
<stop offset="0.76" stop-color="#CCD8DF"/>
<stop offset="0.8" stop-color="#C8D5DD"/>
<stop offset="0.83" stop-color="#CCD6DE"/>
<stop offset="0.85" stop-color="#D8DBE2"/>
<stop offset="0.88" stop-color="#EDE3E9"/>
<stop offset="0.9" stop-color="#FFEBEF"/>
<stop offset="1" stop-color="#FFEBEF"/>
</radialGradient>
<radialGradient id="paint1_radial_2128_341" cx="0" cy="0" r="1" gradientUnits="userSpaceOnUse" gradientTransform="translate(8.96505 14.147) scale(5.84401 5.09801)">
<stop stop-color="#FEFFFF"/>
<stop offset="0.4" stop-color="#FEFFFF"/>
<stop offset="0.51" stop-color="#F9FCFC"/>
<stop offset="0.62" stop-color="#EDF3F5"/>
<stop offset="0.7" stop-color="#DEE9EC"/>
<stop offset="0.72" stop-color="#D8E4E8"/>
<stop offset="0.76" stop-color="#CCD8DF"/>
<stop offset="0.8" stop-color="#C8D5DD"/>
<stop offset="0.83" stop-color="#CCD6DE"/>
<stop offset="0.85" stop-color="#D8DBE2"/>
<stop offset="0.88" stop-color="#EDE3E9"/>
<stop offset="0.9" stop-color="#FFEBEF"/>
<stop offset="1" stop-color="#FFEBEF"/>
</radialGradient>
<radialGradient id="paint2_radial_2128_341" cx="0" cy="0" r="1" gradientUnits="userSpaceOnUse" gradientTransform="translate(16.2296 13.3293) scale(17.6279 12.3771)">
<stop stop-color="#FEFFFF"/>
<stop offset="0.4" stop-color="#FEFFFF"/>
<stop offset="0.51" stop-color="#F9FCFC"/>
<stop offset="0.62" stop-color="#EDF3F5"/>
<stop offset="0.7" stop-color="#DEE9EC"/>
<stop offset="0.72" stop-color="#D8E4E8"/>
<stop offset="0.76" stop-color="#CCD8DF"/>
<stop offset="0.8" stop-color="#C8D5DD"/>
<stop offset="0.83" stop-color="#CCD6DE"/>
<stop offset="0.85" stop-color="#D8DBE2"/>
<stop offset="0.88" stop-color="#EDE3E9"/>
<stop offset="0.9" stop-color="#FFEBEF"/>
<stop offset="1" stop-color="#FFEBEF"/>
</radialGradient>
<radialGradient id="paint3_radial_2128_341" cx="0" cy="0" r="1" gradientUnits="userSpaceOnUse" gradientTransform="translate(19.6374 18.3826) rotate(180) scale(1.47281 2.16223)">
<stop stop-color="#FF6600"/>
<stop offset="0.5" stop-color="#FF4500"/>
<stop offset="0.7" stop-color="#FC4301"/>
<stop offset="0.82" stop-color="#F43F07"/>
<stop offset="0.92" stop-color="#E53812"/>
<stop offset="1" stop-color="#D4301F"/>
</radialGradient>
<radialGradient id="paint4_radial_2128_341" cx="0" cy="0" r="1" gradientUnits="userSpaceOnUse" gradientTransform="translate(12.3109 18.3826) scale(1.47281 2.16223)">
<stop stop-color="#FF6600"/>
<stop offset="0.5" stop-color="#FF4500"/>
<stop offset="0.7" stop-color="#FC4301"/>
<stop offset="0.82" stop-color="#F43F07"/>
<stop offset="0.92" stop-color="#E53812"/>
<stop offset="1" stop-color="#D4301F"/>
</radialGradient>
<radialGradient id="paint5_radial_2128_341" cx="0" cy="0" r="1" gradientUnits="userSpaceOnUse" gradientTransform="translate(16.0365 22.6691) scale(5.19335 3.42543)">
<stop stop-color="#172E35"/>
<stop offset="0.29" stop-color="#0E1C21"/>
<stop offset="0.73" stop-color="#030708"/>
<stop offset="1"/>
</radialGradient>
<radialGradient id="paint6_radial_2128_341" cx="0" cy="0" r="1" gradientUnits="userSpaceOnUse" gradientTransform="translate(20.6163 6.98107) scale(4.55874 4.55878)">
<stop stop-color="#FEFFFF"/>
<stop offset="0.4" stop-color="#FEFFFF"/>
<stop offset="0.51" stop-color="#F9FCFC"/>
<stop offset="0.62" stop-color="#EDF3F5"/>
<stop offset="0.7" stop-color="#DEE9EC"/>
<stop offset="0.72" stop-color="#D8E4E8"/>
<stop offset="0.76" stop-color="#CCD8DF"/>
<stop offset="0.8" stop-color="#C8D5DD"/>
<stop offset="0.83" stop-color="#CCD6DE"/>
<stop offset="0.85" stop-color="#D8DBE2"/>
<stop offset="0.88" stop-color="#EDE3E9"/>
<stop offset="0.9" stop-color="#FFEBEF"/>
<stop offset="1" stop-color="#FFEBEF"/>
</radialGradient>
<radialGradient id="paint7_radial_2128_341" cx="0" cy="0" r="1" gradientUnits="userSpaceOnUse" gradientTransform="translate(18.7166 11.9508) scale(3.73659 3.73662)">
<stop stop-color="#7A9299"/>
<stop offset="0.48" stop-color="#7A9299"/>
<stop offset="0.67" stop-color="#172E35"/>
<stop offset="0.75"/>
<stop offset="0.82" stop-color="#172E35"/>
<stop offset="1" stop-color="#172E35"/>
</radialGradient>
<clipPath id="clip0_2128_341">
<rect width="32" height="32" fill="white"/>
</clipPath>
</defs>
</svg>
