<svg width="32" height="32" viewBox="0 0 32 32" fill="none" xmlns="http://www.w3.org/2000/svg">
<g clip-path="url(#clip0_2128_366)">
<rect x="3" y="3" width="26" height="26" rx="6" fill="#08B2F0"/>
<g clip-path="url(#clip1_2128_366)">
<path d="M24.1237 17.4464C24.3551 16.1384 24.2675 14.7938 23.8685 13.5269C23.4694 12.26 22.7706 11.108 21.8313 10.1687C20.8921 9.22947 19.7401 8.53066 18.4732 8.13159C17.2062 7.73251 15.8617 7.64496 14.5537 7.87636C13.7626 7.34266 12.8293 7.05911 11.875 7.06253C10.5991 7.0639 9.37581 7.57136 8.47359 8.47359C7.57136 9.37581 7.0639 10.5991 7.06253 11.875C7.05911 12.8293 7.34266 13.7626 7.87636 14.5537C7.64496 15.8617 7.73251 17.2062 8.13159 18.4732C8.53066 19.7401 9.22947 20.8921 10.1687 21.8313C11.108 22.7706 12.26 23.4694 13.5269 23.8685C14.7938 24.2675 16.1384 24.3551 17.4464 24.1237C18.2375 24.6574 19.1707 24.9409 20.125 24.9375C21.401 24.9362 22.6243 24.4287 23.5265 23.5265C24.4287 22.6243 24.9362 21.401 24.9375 20.125C24.9409 19.1707 24.6574 18.2375 24.1237 17.4464ZM16 20.8125C14.1042 20.8125 12.5625 19.5785 12.5625 18.0625C12.5625 17.8802 12.635 17.7053 12.7639 17.5764C12.8928 17.4475 13.0677 17.375 13.25 17.375C13.4324 17.375 13.6072 17.4475 13.7362 17.5764C13.8651 17.7053 13.9375 17.8802 13.9375 18.0625C13.9375 18.8076 14.8828 19.4375 16 19.4375C17.1172 19.4375 18.0625 18.8076 18.0625 18.0625C18.0625 17.2478 17.3226 16.9453 15.7525 16.4933C14.399 16.1032 12.7155 15.6176 12.7155 13.9375C12.7155 12.37 14.1275 11.1875 16 11.1875C17.351 11.1875 18.5077 11.8149 19.0182 12.8203C19.0622 12.9012 19.0896 12.99 19.0986 13.0816C19.1077 13.1732 19.0983 13.2657 19.0709 13.3536C19.0436 13.4415 18.9988 13.523 18.9394 13.5933C18.8799 13.6636 18.807 13.7212 18.7248 13.7628C18.6427 13.8043 18.5531 13.829 18.4612 13.8352C18.3694 13.8415 18.2772 13.8292 18.1902 13.7992C18.1032 13.7692 18.0231 13.722 17.9547 13.6604C17.8862 13.5989 17.8309 13.5242 17.7918 13.4408C17.516 12.9011 16.8293 12.5625 16 12.5625C14.9112 12.5625 14.0905 13.1538 14.0905 13.9375C14.0905 14.5391 14.8639 14.8055 16.1332 15.1716C17.528 15.5703 19.4375 16.1246 19.4375 18.0625C19.4375 19.5785 17.8958 20.8125 16 20.8125Z" fill="white"/>
</g>
</g>
<defs>
<clipPath id="clip0_2128_366">
<rect width="32" height="32" fill="white"/>
</clipPath>
<clipPath id="clip1_2128_366">
<rect width="22" height="22" fill="white" transform="translate(5 5)"/>
</clipPath>
</defs>
</svg>
