<svg width="32" height="32" viewBox="0 0 32 32" fill="none" xmlns="http://www.w3.org/2000/svg">
<g clip-path="url(#clip0_2129_436)">
<rect x="3" y="3" width="26" height="26" rx="6" fill="white"/>
<g clip-path="url(#clip1_2129_436)">
<path d="M10.7954 18.3793C10.7954 19.4261 9.9502 20.2705 8.90576 20.2705C7.86133 20.2705 7.01465 19.4246 7.01465 18.3793C7.01465 17.3326 7.85986 16.4882 8.9043 16.4882H10.7939V18.3793H10.7954ZM11.7402 18.3793C11.7402 17.3326 12.5854 16.4882 13.6299 16.4882C14.6743 16.4882 15.5195 17.3341 15.5195 18.3793V23.1088C15.5195 24.1555 14.6743 25 13.6299 25C12.5854 25 11.7402 24.1541 11.7402 23.1088V18.3793Z" fill="#E01E5A"/>
<path d="M13.6299 10.7838C12.584 10.7838 11.7402 9.93794 11.7402 8.89265C11.7402 7.8459 12.5854 7.00146 13.6299 7.00146C14.6743 7.00146 15.5195 7.84737 15.5195 8.89265V10.7838H13.6299ZM13.6299 11.7441C14.6758 11.7441 15.5195 12.59 15.5195 13.6353C15.5195 14.682 14.6743 15.5265 13.6299 15.5265H8.88965C7.84521 15.5279 7 14.682 7 13.6353C7 12.5885 7.84521 11.7441 8.88965 11.7441H13.6299Z" fill="#36C5F0"/>
<path d="M21.2046 13.6353C21.2046 12.5885 22.0498 11.7441 23.0942 11.7441C24.1401 11.7441 24.9839 12.59 24.9839 13.6353C24.9839 14.682 24.1387 15.5265 23.0942 15.5265H21.2046V13.6353ZM20.2598 13.6353C20.2598 14.682 19.4146 15.5265 18.3701 15.5265C17.3242 15.5265 16.4805 14.6806 16.4805 13.6353V8.89119C16.4805 7.84444 17.3257 7 18.3701 7C19.416 7 20.2598 7.8459 20.2598 8.89119V13.6353Z" fill="#2EB67D"/>
<path d="M18.3701 21.2161C19.416 21.2161 20.2598 22.062 20.2598 23.1073C20.2598 24.1541 19.4146 24.9985 18.3701 24.9985C17.3242 24.9985 16.4805 24.1526 16.4805 23.1073V21.2161H18.3701ZM18.3701 20.2705C17.3242 20.2705 16.4805 19.4246 16.4805 18.3793C16.4805 17.3326 17.3257 16.4882 18.3701 16.4882H23.1104C24.1563 16.4882 25 17.3341 25 18.3793C25 19.4261 24.1548 20.2705 23.1104 20.2705H18.3701Z" fill="#ECB22E"/>
</g>
</g>
<defs>
<clipPath id="clip0_2129_436">
<rect width="32" height="32" fill="white"/>
</clipPath>
<clipPath id="clip1_2129_436">
<rect width="18" height="18" fill="white" transform="translate(7 7)"/>
</clipPath>
</defs>
</svg>
