<svg width="32" height="32" viewBox="0 0 32 32" fill="none" xmlns="http://www.w3.org/2000/svg">
<g clip-path="url(#clip0_2128_311)">
<rect x="3" y="3" width="26" height="26" rx="6" fill="#FFFC00"/>
<path d="M16 6.5C17.0309 6.5 17.9606 6.74312 18.7725 7.21484C19.3507 7.55084 19.7288 7.92283 19.9395 8.16797H19.9404C20.1792 8.44546 20.4649 8.8096 20.6836 9.29395C20.9013 9.77656 21.0408 10.345 21.1006 11.0449C21.1676 11.8318 21.1386 12.667 21.1113 13.3105V13.3115C21.1079 13.3975 21.1257 13.4836 21.1631 13.5615C21.2006 13.6396 21.2572 13.708 21.3281 13.7598C21.3991 13.8115 21.4824 13.8448 21.5703 13.8564C21.6582 13.868 21.7476 13.8572 21.8301 13.8252L21.833 13.8242C22.0871 13.7236 22.3601 13.6207 22.6387 13.5596H22.6406C22.7343 13.5388 22.8263 13.5283 22.9131 13.5283C23.2915 13.5284 23.5293 13.7094 23.627 13.9717C23.712 14.2006 23.6977 14.4155 23.5938 14.6162C23.5105 14.7769 23.3533 14.957 23.0674 15.1602L22.6064 15.4688C22.3773 15.6194 21.9893 15.8747 21.7441 16.0508L21.7305 16.0605C21.7005 16.0836 21.6506 16.1242 21.5996 16.1768C21.5548 16.2229 21.4756 16.3118 21.4258 16.4346L21.4248 16.4385C21.3943 16.5158 21.3645 16.6136 21.3623 16.7373C21.3604 16.8471 21.3808 16.9512 21.4043 17.0459L21.4062 17.0566L21.4092 17.0664C21.492 17.3482 21.676 17.8421 22.0566 18.4248C22.3691 18.9036 22.7551 19.3491 23.2021 19.751C23.7589 20.2514 24.4134 20.6853 25.1445 21.0449V21.0459C25.172 21.0596 25.1969 21.0726 25.2217 21.0869L25.3057 21.1357C25.3297 21.1508 25.3584 21.1687 25.3867 21.1904C25.4257 21.2203 25.4578 21.2489 25.4795 21.2744L25.4971 21.2959C25.4972 21.2964 25.4978 21.2977 25.498 21.2988C25.4985 21.3009 25.4986 21.3041 25.499 21.3076C25.4999 21.3152 25.5007 21.3254 25.5 21.3379C25.4985 21.3629 25.4921 21.3983 25.4736 21.4404C25.4385 21.5203 25.3445 21.6593 25.0879 21.8066C24.5946 22.0897 24.1942 22.1926 23.832 22.291C23.7283 22.319 23.6238 22.3482 23.5264 22.3789L23.5068 22.3848C23.469 22.3984 23.3993 22.4246 23.3252 22.4639C23.2624 22.4971 23.1419 22.5679 23.0488 22.6895C22.8964 22.8886 22.8694 23.129 22.8574 23.1963L22.8564 23.2021C22.8337 23.3402 22.7996 23.4446 22.7363 23.5215L22.6621 23.5898C22.5166 23.692 22.3152 23.7156 21.8057 23.7354C21.3163 23.7541 20.6451 23.7779 19.876 24.0361C19.4957 24.1637 19.155 24.3803 18.8311 24.582H18.8301C18.1371 25.0143 17.354 25.5 16 25.5C14.6462 25.5 13.8684 25.0175 13.1807 24.5879V24.5869C12.8542 24.3835 12.5116 24.1676 12.124 24.0371V24.0361L11.8398 23.9502C11.1902 23.7729 10.6228 23.7523 10.1953 23.7354H10.1943C9.68444 23.7156 9.48363 23.6917 9.33887 23.5898L9.33789 23.5889L9.26855 23.5264C9.2083 23.4561 9.17366 23.362 9.15039 23.2373L9.14844 23.2314L9.1084 23.0264C9.08534 22.9344 9.04346 22.81 8.95117 22.6895C8.85439 22.563 8.72654 22.4912 8.66211 22.458L8.47363 22.3789L8.46582 22.377L8.16797 22.291H8.16699C7.84935 22.2046 7.38428 22.0678 6.97754 21.8418L6.80664 21.7383C6.69936 21.668 6.60315 21.5727 6.54785 21.4785C6.49933 21.3958 6.49481 21.3392 6.50391 21.2979C6.50644 21.2941 6.5109 21.2882 6.51758 21.2803C6.53826 21.2557 6.56943 21.2268 6.6084 21.1963C6.64497 21.1677 6.68185 21.1433 6.70996 21.126L6.76855 21.0928C6.80034 21.0744 6.8299 21.0577 6.85547 21.0449C7.5866 20.6853 8.24106 20.2514 8.79785 19.751C9.24486 19.3491 9.63141 18.9043 9.94434 18.4258V18.4248C10.318 17.8518 10.501 17.3647 10.5859 17.082L10.5889 17.0723L10.5918 17.0615C10.6167 16.964 10.6386 16.8568 10.6377 16.7451C10.6366 16.6175 10.6066 16.5172 10.5742 16.4365C10.5187 16.2978 10.4246 16.1997 10.3779 16.1543L10.249 16.0449L10.2402 16.0391L9.80957 15.7441C9.65677 15.6419 9.50686 15.5426 9.39453 15.4688H9.39355L8.93262 15.1602C8.7187 15.0078 8.57641 14.8686 8.4834 14.7402L8.40625 14.6152C8.30267 14.4148 8.28815 14.2003 8.37305 13.9717C8.47074 13.7094 8.70857 13.5284 9.08691 13.5283C9.1737 13.5283 9.26572 13.5388 9.35938 13.5596H9.36133C9.63947 13.6207 9.91314 13.7238 10.166 13.8242L10.1719 13.8262C10.5196 13.9586 10.9043 13.6973 10.8877 13.3105H10.8887C10.8596 12.6009 10.8329 11.8338 10.9004 11.0459V11.0449C10.9596 10.3454 11.0995 9.77688 11.3174 9.29395C11.4815 8.93045 11.6829 8.63452 11.874 8.39258L12.0605 8.16797C12.2095 7.99469 12.5247 7.66652 13.0107 7.34961L13.2305 7.21484C14.0433 6.74342 14.9717 6.50001 16 6.5Z" fill="white" stroke="black"/>
</g>
<defs>
<clipPath id="clip0_2128_311">
<rect width="32" height="32" fill="white"/>
</clipPath>
</defs>
</svg>
