<svg width="32" height="32" viewBox="0 0 32 32" fill="none" xmlns="http://www.w3.org/2000/svg">
<g clip-path="url(#clip0_2128_299)">
<rect x="3" y="3" width="26" height="26" rx="6" fill="#1ED760"/>
<path d="M16 6C14.0222 6 12.0888 6.58649 10.4443 7.6853C8.79981 8.78412 7.51809 10.3459 6.76121 12.1732C6.00433 14.0004 5.8063 16.0111 6.19215 17.9509C6.578 19.8907 7.53041 21.6725 8.92894 23.0711C10.3275 24.4696 12.1093 25.422 14.0491 25.8078C15.9889 26.1937 17.9996 25.9957 19.8268 25.2388C21.6541 24.4819 23.2159 23.2002 24.3147 21.5557C25.4135 19.9112 26 17.9778 26 16C25.9972 13.3487 24.9427 10.8068 23.068 8.93202C21.1932 7.05727 18.6513 6.0028 16 6ZM18.9875 20.0135C18.8921 20.1937 18.729 20.3287 18.5341 20.3888C18.3392 20.4488 18.1284 20.429 17.9481 20.3337C17.3492 20.0117 16.6799 19.8432 16 19.8432C15.3201 19.8432 14.6508 20.0117 14.0519 20.3337C13.8721 20.424 13.664 20.4404 13.4723 20.3791C13.2806 20.3179 13.1206 20.184 13.0265 20.0061C12.9323 19.8282 12.9117 19.6205 12.969 19.4276C13.0262 19.2346 13.1568 19.0718 13.3327 18.974C14.1546 18.5393 15.0702 18.3121 16 18.3121C16.9298 18.3121 17.8454 18.5393 18.6673 18.974C18.8476 19.0694 18.9826 19.2325 19.0426 19.4275C19.1027 19.6224 19.0828 19.8332 18.9875 20.0135ZM20.526 17.3212C20.4301 17.5012 20.2666 17.6357 20.0715 17.6952C19.8764 17.7547 19.6656 17.7343 19.4856 17.6385C18.413 17.067 17.2163 16.7681 16.001 16.7681C14.7856 16.7681 13.5889 17.067 12.5163 17.6385C12.3367 17.7302 12.1282 17.7477 11.9357 17.6872C11.7433 17.6267 11.5823 17.4931 11.4875 17.315C11.3927 17.137 11.3716 16.9288 11.4288 16.7353C11.486 16.5419 11.6169 16.3786 11.7933 16.2808C13.0883 15.5902 14.5333 15.229 16.001 15.229C17.4686 15.229 18.9137 15.5902 20.2087 16.2808C20.298 16.3283 20.377 16.3931 20.4413 16.4712C20.5055 16.5494 20.5537 16.6395 20.5831 16.7363C20.6125 16.8331 20.6225 16.9348 20.6125 17.0355C20.6025 17.1362 20.5728 17.2339 20.525 17.3231L20.526 17.3212ZM22.0644 14.6288C22.0169 14.718 21.9522 14.797 21.8741 14.8611C21.796 14.9253 21.706 14.9734 21.6093 15.0028C21.5126 15.0322 21.411 15.0422 21.3105 15.0323C21.2099 15.0225 21.1122 14.9928 21.0231 14.9452C19.4784 14.1178 17.7533 13.6849 16.001 13.6849C14.2487 13.6849 12.5235 14.1178 10.9788 14.9452C10.7988 15.0413 10.5879 15.062 10.3927 15.0027C10.1974 14.9434 10.0336 14.8089 9.9375 14.6288C9.84136 14.4488 9.82068 14.2379 9.88001 14.0427C9.93933 13.8474 10.0738 13.6836 10.2538 13.5875C12.0217 12.6414 13.9958 12.1463 16.001 12.1463C18.0061 12.1463 19.9802 12.6414 21.7481 13.5875C21.8374 13.6351 21.9165 13.7 21.9807 13.7782C22.045 13.8565 22.0931 13.9467 22.1224 14.0436C22.1517 14.1406 22.1616 14.2423 22.1515 14.3431C22.1414 14.4438 22.1114 14.5416 22.0635 14.6308L22.0644 14.6288Z" fill="white"/>
</g>
<defs>
<clipPath id="clip0_2128_299">
<rect width="32" height="32" fill="white"/>
</clipPath>
</defs>
</svg>
