<svg width="32" height="32" viewBox="0 0 32 32" fill="none" xmlns="http://www.w3.org/2000/svg">
<g clip-path="url(#clip0_2128_291)">
<rect x="3" y="3" width="26" height="26" rx="6" fill="url(#paint0_linear_2128_291)"/>
<path fill-rule="evenodd" clip-rule="evenodd" d="M8.16839 15.0271C12.7319 13.0511 15.7747 11.749 17.2973 11.1195C21.6449 9.32272 22.5481 9.0104 23.1369 9.00007C23.2666 8.99825 23.5558 9.02985 23.7435 9.18114C23.9019 9.30875 23.9453 9.48131 23.9661 9.60223C23.9869 9.72375 24.0132 9.99901 23.9924 10.2147C23.757 12.6744 22.7376 18.6431 22.2191 21.398C21.9996 22.5641 21.5673 22.9548 21.149 22.993C20.2403 23.0763 19.55 22.3958 18.6694 21.8222C17.2917 20.9253 16.5133 20.3663 15.176 19.4907C13.6302 18.4784 14.6324 17.9224 15.5129 17.0134C15.7435 16.7752 19.7487 13.155 19.8264 12.8269C19.8361 12.7856 19.8453 12.6324 19.7536 12.5516C19.6619 12.4708 19.5267 12.4988 19.4295 12.5206C19.2913 12.5516 17.0906 13.9972 12.8267 16.8573C12.2017 17.2838 11.6355 17.491 11.1286 17.4807C10.5697 17.4685 9.4947 17.1665 8.69549 16.9083C7.71528 16.5917 6.93625 16.424 7.00412 15.8863C7.03898 15.6062 7.42727 15.32 8.16839 15.0271Z" fill="white"/>
</g>
<defs>
<linearGradient id="paint0_linear_2128_291" x1="16" y1="3.195" x2="16" y2="29" gradientUnits="userSpaceOnUse">
<stop stop-color="#2AABEE"/>
<stop offset="1" stop-color="#229ED9"/>
</linearGradient>
<clipPath id="clip0_2128_291">
<rect width="32" height="32" fill="white"/>
</clipPath>
</defs>
</svg>
