<svg width="32" height="32" viewBox="0 0 32 32" fill="none" xmlns="http://www.w3.org/2000/svg">
<g clip-path="url(#clip0_2126_392)">
<rect x="3" y="3" width="26" height="26" rx="6" fill="black"/>
<path d="M21.035 10.4776C21.716 11.1797 22.5652 11.6077 23.421 11.8024V11.2751C22.6169 11.2182 21.7756 10.9651 21.035 10.4776ZM16.1159 7V18.7907C16.1159 20.3354 15.0057 21.329 13.6557 21.329C13.2079 21.329 12.7827 21.2244 12.413 21.0309C12.882 21.6297 13.6226 21.9742 14.4347 21.9742C15.7847 21.9742 16.8949 20.9806 16.8949 19.4345V7.64384H19.0345C18.9763 7.43851 18.9285 7.22388 18.8914 7H16.1159ZM14.3605 13.8545V13.2702C14.0903 13.2252 13.82 13.2106 13.5961 13.2106C10.5503 13.2106 8 15.6549 8 18.686C8 20.6759 8.96845 22.3769 10.4403 23.3838C9.41492 22.3663 8.77901 20.9422 8.77901 19.3299C8.77901 16.304 11.3214 13.8611 14.3605 13.8545Z" fill="#2DCCD3"/>
<path d="M19.2046 18.5959C19.2046 22.361 16.3244 24.3561 13.6098 24.3561C12.4347 24.3561 11.343 24.0011 10.4395 23.3837C11.4543 24.3906 12.8507 25 14.3888 25C17.1034 25 19.9835 23.0048 19.9835 19.2398V13.1046C19.7133 12.9218 19.4536 12.7085 19.2046 12.4594V18.5959ZM12.4122 21.0309C12.0809 20.6123 11.8835 20.0704 11.8835 19.4345C11.8835 17.65 13.2786 16.7068 15.1386 16.9028V13.9141C14.8684 13.869 14.5981 13.8544 14.3729 13.8544H14.3597V16.2576C12.4996 16.0629 11.1045 17.0048 11.1045 18.7907C11.1045 19.8346 11.6384 20.6268 12.4122 21.0309ZM23.4202 11.8024V14.0346C22.1841 14.0346 21.0143 13.7988 19.9835 13.1046C21.1838 14.3049 22.6398 14.6798 24.1992 14.6798V11.919C23.9368 11.9013 23.6762 11.8623 23.4202 11.8024ZM21.0341 10.4775C20.3757 9.80056 19.8736 8.86791 19.6695 7.6438H19.0337C19.3966 8.96728 20.1438 9.89066 21.0341 10.4775Z" fill="#F1204A"/>
<path d="M13.61 24.3561C16.3246 24.3561 19.2048 22.3609 19.2048 18.5959V12.4594C19.4538 12.7085 19.7135 12.9218 19.9838 13.1046C21.0145 13.7988 22.1843 14.0346 23.4204 14.0346V11.8023C22.5645 11.6076 21.7153 11.1796 21.0343 10.4775C20.144 9.89063 19.3969 8.96725 19.0338 7.6438H16.8942V19.4345C16.8942 20.9805 15.784 21.9741 14.434 21.9741C13.6219 21.9741 12.8813 21.6297 12.4123 21.0309C11.6386 20.6268 11.1047 19.8346 11.1047 18.7907C11.1047 17.0048 12.4998 16.0629 14.3599 16.2576V13.8544C11.3207 13.8611 8.77832 16.304 8.77832 19.3298C8.77832 20.9421 9.41423 22.3662 10.4397 23.3837C11.3432 24.0011 12.4349 24.3561 13.61 24.3561Z" fill="white"/>
</g>
<defs>
<clipPath id="clip0_2126_392">
<rect width="32" height="32" fill="white"/>
</clipPath>
</defs>
</svg>
