<svg width="32" height="32" viewBox="0 0 32 32" fill="none" xmlns="http://www.w3.org/2000/svg">
<g clip-path="url(#clip0_2129_529)">
<rect x="3" y="3" width="26" height="26" rx="6" fill="#27A4D9"/>
<path fill-rule="evenodd" clip-rule="evenodd" d="M24.9997 10.7288C24.338 11.0247 23.6251 11.2214 22.8807 11.309C23.6433 10.8523 24.2266 10.1285 24.505 9.26681C23.7922 9.68839 22.9999 9.9976 22.1605 10.163C21.4856 9.44582 20.5269 9 19.4649 9C17.4257 9 15.7747 10.6519 15.7747 12.6898C15.7747 12.9774 15.8067 13.2588 15.8691 13.5302C12.8008 13.3747 10.0806 11.9058 8.25971 9.67095C7.93307 10.2344 7.76021 10.8752 7.76021 11.5268V11.5272C7.76021 12.8068 8.40989 13.9385 9.40122 14.5985C8.79631 14.5805 8.22731 14.4118 7.7277 14.1385V14.1846C7.7277 15.9741 8.99962 17.4672 10.6897 17.8047C10.3801 17.8888 10.0532 17.9352 9.71647 17.9352C9.47795 17.9352 9.24813 17.9107 9.0196 17.8691C9.49167 19.3346 10.8543 20.403 12.4679 20.4341C11.2027 21.4254 9.61355 22.0156 7.88117 22.0156C7.58217 22.0156 7.2909 21.9973 7 21.9624C8.63761 23.0132 10.5776 23.6217 12.6616 23.6217C19.4513 23.6217 23.1673 17.995 23.1673 13.1164C23.1673 12.9543 23.1637 12.7972 23.157 12.6384C23.8781 12.1225 24.5034 11.4715 24.9983 10.7304L24.9999 10.7287L24.9996 10.7289L24.9997 10.7288Z" fill="white"/>
</g>
<defs>
<clipPath id="clip0_2129_529">
<rect width="32" height="32" fill="white"/>
</clipPath>
</defs>
</svg>
