<svg width="32" height="32" viewBox="0 0 32 32" fill="none" xmlns="http://www.w3.org/2000/svg">
<g clip-path="url(#clip0_2125_291)">
<rect x="3" y="3" width="26" height="26" rx="6" fill="black"/>
<path d="M23.8866 23.8372L18.1977 14.6199L23.8112 8.25359C23.9382 8.10604 24.0036 7.91286 23.9933 7.71591C23.983 7.51897 23.8979 7.33414 23.7563 7.20149C23.6147 7.06884 23.4281 6.99907 23.237 7.0073C23.0459 7.01554 22.8656 7.10111 22.7352 7.24547L17.388 13.3091L13.7084 7.34759C13.6428 7.24112 13.5522 7.15344 13.4449 7.09268C13.3377 7.03192 13.2173 7.00004 13.095 7H8.73288C8.60253 6.99993 8.47455 7.036 8.36236 7.10443C8.25017 7.17285 8.15789 7.27112 8.09517 7.38893C8.03246 7.50675 8.00163 7.63978 8.0059 7.77409C8.01017 7.90841 8.04939 8.03907 8.11946 8.1524L13.8084 17.3688L8.19489 23.7398C8.12933 23.8124 8.07841 23.8976 8.04506 23.9907C8.01172 24.0837 7.99662 24.1827 8.00063 24.2818C8.00465 24.3809 8.0277 24.4782 8.06846 24.568C8.10922 24.6578 8.16686 24.7385 8.23806 24.8052C8.30926 24.8719 8.39259 24.9233 8.48323 24.9566C8.57387 24.9899 8.67 25.0042 8.76607 24.9989C8.86214 24.9936 8.95623 24.9687 9.04288 24.9256C9.12953 24.8825 9.20703 24.8221 9.27087 24.7479L14.6181 18.6842L18.2977 24.6458C18.3638 24.7514 18.4547 24.8381 18.5619 24.898C18.6691 24.958 18.7892 24.9891 18.9111 24.9887H23.2732C23.4034 24.9886 23.5312 24.9525 23.6433 24.8841C23.7553 24.8158 23.8475 24.7176 23.9102 24.6C23.9729 24.4823 24.0038 24.3494 23.9996 24.2153C23.9955 24.0811 23.9565 23.9505 23.8866 23.8372ZM19.3101 23.4896L10.057 8.49906H12.6924L21.9491 23.4896H19.3101Z" fill="white"/>
</g>
<defs>
<clipPath id="clip0_2125_291">
<rect width="32" height="32" fill="white"/>
</clipPath>
</defs>
</svg>
