<svg width="32" height="32" viewBox="0 0 32 32" fill="none" xmlns="http://www.w3.org/2000/svg">
<g clip-path="url(#clip0_2129_543)">
<rect x="3" y="3" width="26" height="26" rx="6" fill="white"/>
<g clip-path="url(#clip1_2129_543)">
<path fill-rule="evenodd" clip-rule="evenodd" d="M25.7959 12.0012C25.7959 12.0012 25.6006 10.6226 24.9997 10.0173C24.2383 9.22112 23.3857 9.21602 22.9959 9.16982C20.1994 8.96606 15.9991 8.96606 15.9991 8.96606H15.9917C15.9917 8.96606 11.7934 8.96606 8.99526 9.16982C8.60394 9.2174 7.75254 9.2207 6.99144 10.0173C6.39012 10.6226 6.19902 12.0012 6.19902 12.0012C6.19902 12.0012 6 13.6189 6 15.24V16.7559C6 18.3737 6.1989 19.9947 6.1989 19.9947C6.1989 19.9947 6.39414 21.3732 6.99132 21.9796C7.75242 22.7757 8.75268 22.7499 9.1992 22.8348C10.8003 22.9877 16.0004 23.0337 16.0004 23.0337C16.0004 23.0337 20.2044 23.0263 23.001 22.8263C23.3923 22.7801 24.2433 22.7754 25.0048 21.9789C25.606 21.3735 25.8009 19.9935 25.8009 19.9935C25.8009 19.9935 26.0001 18.3758 26.0001 16.7547V15.239C25.996 13.6212 25.797 12.0002 25.797 12.0002L25.7959 12.0013L25.7958 12.0012H25.7959ZM13.9274 18.595V12.9741L19.3302 15.794L13.9274 18.595Z" fill="#FF0000"/>
</g>
</g>
<defs>
<clipPath id="clip0_2129_543">
<rect width="32" height="32" fill="white"/>
</clipPath>
<clipPath id="clip1_2129_543">
<rect width="20" height="20" fill="white" transform="translate(6 6)"/>
</clipPath>
</defs>
</svg>
