<svg width="32" height="32" viewBox="0 0 32 32" fill="none" xmlns="http://www.w3.org/2000/svg">
<path opacity="0.2" fill-rule="evenodd" clip-rule="evenodd" d="M23.5438 16.8134C23.5115 13.522 26.207 11.9425 26.3275 11.8643C24.8124 9.63035 22.4519 9.32329 21.6108 9.28876C19.6021 9.08434 17.6919 10.4815 16.6714 10.4815C15.6537 10.4815 14.081 9.31943 12.4155 9.35018C10.2264 9.3828 8.20812 10.6336 7.07958 12.6099C4.80523 16.5874 6.49785 22.4827 8.71462 25.7079C9.79749 27.2874 11.0889 29.0617 12.7848 28.9983C14.4175 28.9336 15.0353 27.9323 17.0103 27.9323C18.9847 27.9323 19.5392 28.9984 21.2676 28.9643C23.025 28.9317 24.1383 27.3541 25.214 25.7694C26.4588 23.9365 26.969 22.1641 27 22.073C26.9609 22.0552 23.5733 20.7473 23.539 16.8148L23.5438 16.8134H23.5438ZM20.2975 7.15169C21.1972 6.05152 21.805 4.52432 21.6389 3C20.3428 3.05326 18.771 3.87082 17.8405 4.96958C17.0051 5.945 16.2754 7.49954 16.4705 8.99266C17.918 9.1064 19.396 8.25138 20.2961 7.1536L20.2975 7.15169Z" fill="#333333"/>
<path d="M21.5098 10.2832L21.54 10.2871L21.5693 10.2881C22.1859 10.3134 23.6862 10.5127 24.8896 11.6973C24.6478 11.9105 24.3786 12.174 24.1123 12.4912C23.4247 13.3106 22.7414 14.4975 22.5801 16.0576L22.5322 16.0723L22.5391 16.8232C22.559 19.1116 23.5664 20.6665 24.5752 21.6338C24.9978 22.039 25.4213 22.3388 25.7695 22.5537C25.5397 23.1443 25.1621 23.9957 24.5957 24.8887L24.3867 25.208C23.8391 26.0147 23.3503 26.7125 22.8105 27.2217C22.2904 27.7123 21.7986 27.9546 21.249 27.9648H21.248C20.6241 27.9771 20.2329 27.8065 19.6309 27.5439C18.9992 27.2685 18.211 26.9327 17.0107 26.9326C15.8235 26.9326 15.028 27.2436 14.377 27.5215C13.7415 27.7927 13.3471 27.9742 12.7451 27.998C12.2827 28.0145 11.7858 27.7898 11.2061 27.2422C10.6243 26.6926 10.0857 25.9399 9.53906 25.1426V25.1416L9.34766 24.8545C8.3992 23.3804 7.56531 21.3635 7.19824 19.2686C6.80537 17.0261 6.96739 14.8203 7.94727 13.1064L7.94824 13.1055C8.91438 11.4138 10.6206 10.3766 12.4307 10.3496H12.4336C13.0487 10.3383 13.694 10.5493 14.4199 10.835C14.7536 10.9663 15.1425 11.128 15.4873 11.2461C15.8308 11.3638 16.2469 11.4814 16.6709 11.4814C17.1157 11.4814 17.5707 11.337 17.9307 11.207C18.2711 11.0841 18.7695 10.8782 19.124 10.7441C19.9566 10.4294 20.7508 10.206 21.5098 10.2832ZM20.5967 4.24219C20.445 5.06963 20.0528 5.87112 19.5234 6.51855L19.5225 6.51953C18.9892 7.16982 18.2469 7.67149 17.4971 7.88672C17.6482 7.05448 18.0813 6.22535 18.5996 5.62012L18.6035 5.61621C19.114 5.01341 19.8637 4.51988 20.5967 4.24219Z" stroke="#333333" stroke-width="2"/>
</svg>
