<svg width="32" height="32" viewBox="0 0 32 32" fill="none" xmlns="http://www.w3.org/2000/svg">
<path opacity="0.2" d="M11.3333 23L10 25.6667C8.3 24.9583 6.54166 24.25 4.675 23.0333C4.35585 22.8219 4.09257 22.5364 3.90756 22.2012C3.72256 21.866 3.62133 21.4911 3.6125 21.1083C3.52916 17.1125 4.46666 13.1 6.84166 8.85417C7.15966 8.30203 7.66762 7.8844 8.27083 7.67917C9.69583 7.17083 10.6708 6.77917 12.3333 6.5L13.3333 8.33333C13.3333 8.33333 14.3333 8 16 8C17.6667 8 18.6667 8.33333 18.6667 8.33333L19.6667 6.5C21.3292 6.77917 22.3042 7.17083 23.7333 7.67917C24.3365 7.8844 24.8445 8.30203 25.1625 8.85417C27.5333 13.1 28.4708 17.1167 28.3917 21.1083C28.3828 21.4911 28.2816 21.866 28.0966 22.2012C27.9116 22.5364 27.6483 22.8219 27.3292 23.0333C25.4583 24.25 23.7 24.9583 22.0042 25.6667L20.6708 23M9.3375 21.6667C9.3375 21.6667 12.1667 21.5 15.5 21.5C18.8333 21.5 22.6708 21.6667 22.6708 21.6667" fill="#333333"/>
<path d="M11.3333 23L10 25.6667C8.3 24.9583 6.54166 24.25 4.675 23.0333C4.35585 22.8219 4.09257 22.5364 3.90756 22.2012C3.72256 21.866 3.62133 21.4911 3.6125 21.1083C3.52916 17.1125 4.46666 13.1 6.84166 8.85417C7.15966 8.30203 7.66763 7.8844 8.27083 7.67917C9.69583 7.17083 10.6708 6.77917 12.3333 6.5L13.3333 8.33333C13.3333 8.33333 14.3333 8 16 8C17.6667 8 18.6667 8.33333 18.6667 8.33333L19.6667 6.5C21.3292 6.77917 22.3042 7.17083 23.7333 7.67917C24.3365 7.8844 24.8445 8.30203 25.1625 8.85417C27.5333 13.1 28.4708 17.1167 28.3917 21.1083C28.3828 21.4911 28.2816 21.866 28.0966 22.2012C27.9116 22.5364 27.6483 22.8219 27.3292 23.0333C25.4583 24.25 23.7 24.9583 22.0042 25.6667L20.6708 23M9.3375 21.6667C9.3375 21.6667 12.6708 23.3333 16.0042 23.3333C19.3375 23.3333 22.6708 21.6667 22.6708 21.6667" stroke="#333333" stroke-width="2" stroke-linecap="round" stroke-linejoin="round"/>
<path d="M14.0003 16.8333C14.0003 17.4964 13.7721 18.1322 13.3657 18.6011C12.9594 19.0699 12.4083 19.3333 11.8337 19.3333C11.259 19.3333 10.7079 19.0699 10.3016 18.6011C9.89527 18.1322 9.66699 17.4964 9.66699 16.8333C9.66699 16.1703 9.89527 15.5344 10.3016 15.0655C10.7079 14.5967 11.259 14.3333 11.8337 14.3333C12.4083 14.3333 12.9594 14.5967 13.3657 15.0655C13.7721 15.5344 14.0003 16.1703 14.0003 16.8333ZM22.3337 16.8333C22.3337 17.4964 22.1054 18.1322 21.6991 18.6011C21.2927 19.0699 20.7416 19.3333 20.167 19.3333C19.5924 19.3333 19.0413 19.0699 18.6349 18.6011C18.2286 18.1322 18.0003 17.4964 18.0003 16.8333C18.0003 16.1703 18.2286 15.5344 18.6349 15.0655C19.0413 14.5967 19.5924 14.3333 20.167 14.3333C20.7416 14.3333 21.2927 14.5967 21.6991 15.0655C22.1054 15.5344 22.3337 16.1703 22.3337 16.8333Z" fill="#333333"/>
</svg>
