<svg width="32" height="32" viewBox="0 0 32 32" fill="none" xmlns="http://www.w3.org/2000/svg">
<path opacity="0.2" d="M25 16C25 16.7911 24.7654 17.5645 24.3259 18.2223C23.8864 18.8801 23.2616 19.3928 22.5307 19.6955C21.7998 19.9983 20.9956 20.0775 20.2196 19.9231C19.4437 19.7688 18.731 19.3878 18.1716 18.8284C17.6122 18.269 17.2312 17.5563 17.0769 16.7804C16.9225 16.0044 17.0017 15.2002 17.3045 14.4693C17.6072 13.7384 18.1199 13.1136 18.7777 12.6741C19.4355 12.2346 20.2089 12 21 12C22.0609 12 23.0783 12.4214 23.8284 13.1716C24.5786 13.9217 25 14.9391 25 16ZM12 12H17V4H12C10.9391 4 9.92172 4.42143 9.17157 5.17157C8.42143 5.92172 8 6.93913 8 8C8 9.06087 8.42143 10.0783 9.17157 10.8284C9.92172 11.5786 10.9391 12 12 12ZM8 24.5C8 25.6935 8.47411 26.8381 9.31802 27.682C10.1619 28.5259 11.3065 29 12.5 29C13.6935 29 14.8381 28.5259 15.682 27.682C16.5259 26.8381 17 25.6935 17 24.5V20H12.5C11.3065 20 10.1619 20.4741 9.31802 21.318C8.47411 22.1619 8 23.3065 8 24.5Z" fill="#333333"/>
<path d="M23.9995 12C24.8391 11.3704 25.4592 10.4925 25.7721 9.49084C26.085 8.48916 26.0748 7.41442 25.7429 6.41886C25.4111 5.4233 24.7744 4.55739 23.9231 3.94379C23.0717 3.33019 22.0489 3 20.9995 3H11.9995C10.9501 3 9.9273 3.33019 9.07597 3.94379C8.22464 4.55739 7.58796 5.4233 7.2561 6.41886C6.92425 7.41442 6.91405 8.48916 7.22695 9.49084C7.53985 10.4925 8.15999 11.3704 8.99952 12C8.36387 12.4764 7.85087 13.0973 7.503 13.8115C7.15514 14.5256 6.98242 15.3123 6.99916 16.1065C7.0159 16.9006 7.22161 17.6794 7.59925 18.3782C7.9769 19.077 8.51561 19.6758 9.17077 20.125C8.42557 20.6916 7.83731 21.439 7.46169 22.2964C7.08607 23.1539 6.93553 24.093 7.02432 25.0249C7.1131 25.9569 7.43828 26.8507 7.96906 27.6218C8.49984 28.3929 9.21866 29.0157 10.0574 29.4314C10.8962 29.8471 11.8272 30.0417 12.7623 29.997C13.6973 29.9523 14.6055 29.6696 15.4008 29.1758C16.1961 28.682 16.8522 27.9934 17.3069 27.1751C17.7617 26.3569 18.0001 25.4361 17.9995 24.5V20C19.0604 20.7956 20.3939 21.1373 21.7066 20.9497C23.0194 20.7622 24.2039 20.0609 24.9995 19C25.7952 17.9391 26.1368 16.6056 25.9493 15.2929C25.7617 13.9801 25.0604 12.7956 23.9995 12ZM23.9995 8C23.9995 8.79565 23.6835 9.55871 23.1208 10.1213C22.5582 10.6839 21.7952 11 20.9995 11H17.9995V5H20.9995C21.7952 5 22.5582 5.31607 23.1208 5.87868C23.6835 6.44129 23.9995 7.20435 23.9995 8ZM8.99952 8C8.99952 7.20435 9.31559 6.44129 9.8782 5.87868C10.4408 5.31607 11.2039 5 11.9995 5H15.9995V11H11.9995C11.2039 11 10.4408 10.6839 9.8782 10.1213C9.31559 9.55871 8.99952 8.79565 8.99952 8ZM11.9995 19C11.2039 19 10.4408 18.6839 9.8782 18.1213C9.31559 17.5587 8.99952 16.7956 8.99952 16C8.99952 15.2044 9.31559 14.4413 9.8782 13.8787C10.4408 13.3161 11.2039 13 11.9995 13H15.9995V19H11.9995ZM15.9995 24.5C15.9995 25.1922 15.7943 25.8689 15.4097 26.4445C15.0251 27.0201 14.4785 27.4687 13.8389 27.7336C13.1994 27.9985 12.4956 28.0678 11.8167 27.9327C11.1378 27.7977 10.5141 27.4644 10.0246 26.9749C9.53516 26.4854 9.20182 25.8617 9.06677 25.1828C8.93172 24.5039 9.00104 23.8001 9.26594 23.1606C9.53085 22.5211 9.97945 21.9744 10.555 21.5899C11.1306 21.2053 11.8073 21 12.4995 21H15.9995V24.5ZM20.9995 19C20.4062 19 19.8262 18.8241 19.3328 18.4944C18.8395 18.1648 18.4549 17.6962 18.2279 17.1481C18.0008 16.5999 17.9414 15.9967 18.0572 15.4147C18.1729 14.8328 18.4586 14.2982 18.8782 13.8787C19.2978 13.4591 19.8323 13.1734 20.4142 13.0576C20.9962 12.9419 21.5994 13.0013 22.1476 13.2284C22.6958 13.4554 23.1643 13.8399 23.4939 14.3333C23.8236 14.8266 23.9995 15.4067 23.9995 16C23.9995 16.7956 23.6835 17.5587 23.1208 18.1213C22.5582 18.6839 21.7952 19 20.9995 19Z" fill="#333333"/>
</svg>
