<svg width="32" height="32" viewBox="0 0 32 32" fill="none" xmlns="http://www.w3.org/2000/svg">
<path opacity="0.2" d="M28 16C28.0003 18.1075 27.4455 20.1778 26.3916 22.0027C25.3377 23.8277 23.8217 25.3429 21.9963 26.396C20.1708 27.449 18.1002 28.0028 15.9928 28.0015C13.8854 28.0003 11.8154 27.444 9.99125 26.3888L5.3175 27.9475C5.14131 28.0063 4.95223 28.0148 4.77146 27.9722C4.59069 27.9295 4.42537 27.8373 4.29403 27.706C4.1627 27.5747 4.07054 27.4093 4.02787 27.2286C3.98521 27.0478 3.99374 26.8587 4.0525 26.6825L5.61125 22.0088C4.68989 20.4151 4.14752 18.6308 4.02612 16.794C3.90473 14.9572 4.20755 13.117 4.91116 11.4159C5.61477 9.71488 6.70031 8.19849 8.08378 6.98412C9.46725 5.76974 11.1116 4.88994 12.8895 4.41277C14.6674 3.93561 16.5313 3.87388 18.3369 4.23237C20.1425 4.59085 21.8414 5.35994 23.3022 6.48012C24.763 7.6003 25.9465 9.04154 26.7611 10.6923C27.5757 12.3431 27.9996 14.1592 28 16Z" fill="#333333"/>
<path d="M22.7075 13.2925C22.8005 13.3854 22.8742 13.4956 22.9246 13.617C22.9749 13.7384 23.0008 13.8686 23.0008 14C23.0008 14.1314 22.9749 14.2615 22.9246 14.3829C22.8742 14.5043 22.8005 14.6146 22.7075 14.7075L18.7075 18.7075C18.6146 18.8005 18.5043 18.8742 18.3829 18.9245C18.2615 18.9749 18.1314 19.0008 18 19.0008C17.8686 19.0008 17.7385 18.9749 17.6171 18.9245C17.4957 18.8742 17.3854 18.8005 17.2925 18.7075L14 15.4137L10.7075 18.7075C10.5199 18.8951 10.2654 19.0005 10 19.0005C9.73464 19.0005 9.48014 18.8951 9.2925 18.7075C9.10486 18.5198 8.99944 18.2653 8.99944 18C8.99944 17.7346 9.10486 17.4801 9.2925 17.2925L13.2925 13.2925C13.3854 13.1995 13.4957 13.1257 13.6171 13.0754C13.7385 13.0251 13.8686 12.9992 14 12.9992C14.1314 12.9992 14.2615 13.0251 14.3829 13.0754C14.5043 13.1257 14.6146 13.1995 14.7075 13.2925L18 16.5862L21.2925 13.2925C21.3854 13.1995 21.4957 13.1257 21.6171 13.0754C21.7385 13.0251 21.8686 12.9992 22 12.9992C22.1314 12.9992 22.2615 13.0251 22.3829 13.0754C22.5043 13.1257 22.6146 13.1995 22.7075 13.2925ZM29 16C29.0005 18.2444 28.4199 20.4507 27.3147 22.4042C26.2095 24.3576 24.6174 25.9917 22.6934 27.1473C20.7693 28.3029 18.5788 28.9406 16.3352 28.9985C14.0915 29.0564 11.8711 28.5324 9.89 27.4775L5.63375 28.8962C5.28136 29.0137 4.9032 29.0308 4.54166 28.9455C4.18012 28.8602 3.84948 28.6758 3.58681 28.4132C3.32414 28.1505 3.13982 27.8199 3.0545 27.4583C2.96918 27.0968 2.98623 26.7186 3.10375 26.3662L4.5225 22.11C3.59519 20.3665 3.07725 18.4347 3.008 16.4612C2.93875 14.4877 3.32001 12.5243 4.12284 10.7201C4.92567 8.91597 6.12897 7.31841 7.6414 6.04872C9.15383 4.77902 10.9356 3.87057 12.8516 3.39232C14.7675 2.91407 16.7672 2.87859 18.699 3.28856C20.6307 3.69854 22.4436 4.54321 24.0001 5.75844C25.5566 6.97368 26.8158 8.52754 27.6822 10.3021C28.5485 12.0766 28.9992 14.0252 29 16ZM27 16C26.9995 14.3126 26.6109 12.648 25.8641 11.1349C25.1174 9.6218 24.0325 8.30077 22.6935 7.27402C21.3545 6.24727 19.7973 5.54232 18.1422 5.21371C16.4872 4.88511 14.7787 4.94165 13.149 5.37897C11.5194 5.8163 10.0121 6.62267 8.74394 7.73572C7.47577 8.84876 6.48065 10.2386 5.83558 11.7978C5.1905 13.357 4.91277 15.0437 5.02387 16.7273C5.13496 18.411 5.63191 20.0466 6.47625 21.5075C6.54712 21.6301 6.59112 21.7664 6.60534 21.9074C6.61956 22.0483 6.60368 22.1906 6.55875 22.325L5 27L9.675 25.44C9.80942 25.3952 9.95182 25.3796 10.0928 25.394C10.2337 25.4084 10.3699 25.4527 10.4925 25.5237C12.1647 26.4909 14.0622 27.0007 15.994 27.0018C17.9257 27.0028 19.8237 26.4951 21.497 25.5298C23.1703 24.5644 24.5599 23.1754 25.5259 21.5025C26.4919 19.8296 27.0003 17.9318 27 16Z" fill="#333333"/>
</svg>
