<svg width="32" height="32" viewBox="0 0 32 32" fill="none" xmlns="http://www.w3.org/2000/svg">
<path opacity="0.2" d="M28.0002 22C28 23.1209 27.6857 24.2194 27.093 25.1708C26.5003 26.1223 25.653 26.8887 24.647 27.3832C23.641 27.8776 22.5166 28.0804 21.4012 27.9685C20.2859 27.8566 19.2242 27.4345 18.3365 26.75C16.5368 27.139 14.6683 27.0705 12.902 26.5506C11.1357 26.0307 9.52803 25.0761 8.22609 23.7741C6.92414 22.4722 5.96954 20.8645 5.44966 19.0982C4.92977 17.3319 4.86121 15.4634 5.25024 13.6637C4.36238 12.509 3.92493 11.0706 4.0195 9.61706C4.11407 8.16349 4.7342 6.79396 5.7642 5.76396C6.7942 4.73396 8.16373 4.11383 9.6173 4.01926C11.0709 3.92469 12.5092 4.36213 13.664 5.24999C15.4636 4.86096 17.3321 4.92953 19.0984 5.44941C20.8647 5.9693 22.4724 6.9239 23.7744 8.22584C25.0763 9.52779 26.0309 11.1355 26.5508 12.9018C27.0707 14.6681 27.1393 16.5366 26.7502 18.3362C27.5622 19.3848 28.002 20.6738 28.0002 22Z" fill="#333333"/>
<path d="M21 19C21 21.205 18.7575 23 16 23C13.2425 23 11 21.205 11 19C11 18.7348 11.1054 18.4804 11.2929 18.2929C11.4805 18.1053 11.7348 18 12 18C12.2653 18 12.5196 18.1053 12.7072 18.2929C12.8947 18.4804 13 18.7348 13 19C13 20.0837 14.375 21 16 21C17.625 21 19 20.0837 19 19C19 17.815 17.9238 17.375 15.64 16.7175C13.6713 16.15 11.2225 15.4437 11.2225 13C11.2225 10.72 13.2763 8.99998 16 8.99998C17.965 8.99998 19.6475 9.91248 20.39 11.375C20.4541 11.4926 20.4939 11.6218 20.5071 11.755C20.5203 11.8883 20.5066 12.0228 20.4668 12.1507C20.427 12.2785 20.3619 12.397 20.2755 12.4993C20.189 12.6015 20.0829 12.6853 19.9634 12.7458C19.8439 12.8062 19.7136 12.8421 19.58 12.8512C19.4464 12.8603 19.3123 12.8425 19.1858 12.7988C19.0592 12.7551 18.9427 12.6865 18.8432 12.5969C18.7436 12.5074 18.6631 12.3987 18.6063 12.2775C18.205 11.4925 17.2063 11 16 11C14.4163 11 13.2225 11.86 13.2225 13C13.2225 13.875 14.3475 14.2625 16.1938 14.795C18.2225 15.375 21 16.1812 21 19ZM29 22C28.9981 23.8559 28.2599 25.6352 26.9476 26.9475C25.6353 28.2599 23.8559 28.998 22 29C20.612 29.005 19.2545 28.5925 18.1038 27.8162C16.2013 28.1528 14.2456 28.0255 12.4028 27.445C10.5599 26.8645 8.88434 25.8481 7.51815 24.4819C6.15196 23.1157 5.13551 21.4401 4.55504 19.5973C3.97457 17.7544 3.84722 15.7988 4.18379 13.8962C3.40751 12.7455 2.99508 11.388 3.00004 9.99998C3.00203 8.14408 3.74017 6.36475 5.05249 5.05243C6.36481 3.7401 8.14414 3.00197 10 2.99998C11.3881 2.99501 12.7456 3.40745 13.8963 4.18373C15.7988 3.84716 17.7545 3.97451 19.5973 4.55498C21.4401 5.13544 23.1157 6.1519 24.4819 7.51809C25.8481 8.88428 26.8646 10.5599 27.4451 12.4027C28.0255 14.2455 28.1529 16.2012 27.8163 18.1037C28.5926 19.2544 29.005 20.6119 29 22ZM27 22C27.0038 20.8949 26.6377 19.8204 25.96 18.9475C25.871 18.8322 25.8081 18.6989 25.776 18.5568C25.7438 18.4148 25.7431 18.2674 25.7738 18.125C26.1278 16.4886 26.0657 14.7895 25.5931 13.1834C25.1204 11.5772 24.2525 10.1153 23.0686 8.93143C21.8847 7.74756 20.4228 6.87959 18.8166 6.40698C17.2105 5.93437 15.5114 5.87222 13.875 6.22623C13.7327 6.25697 13.5853 6.25622 13.4432 6.22405C13.3011 6.19188 13.1678 6.12906 13.0525 6.03998C12.1797 5.36231 11.1051 4.9962 10 4.99998C8.67396 4.99998 7.40219 5.52677 6.46451 6.46445C5.52683 7.40213 5.00004 8.6739 5.00004 9.99998C4.99626 11.105 5.36237 12.1796 6.04004 13.0525C6.12912 13.1677 6.19194 13.3011 6.22411 13.4431C6.25628 13.5852 6.25703 13.7326 6.22629 13.875C5.87228 15.5114 5.93443 17.2104 6.40704 18.8166C6.87965 20.4227 7.74762 21.8847 8.93149 23.0685C10.1154 24.2524 11.5773 25.1204 13.1835 25.593C14.7896 26.0656 16.4887 26.1277 18.125 25.7737C18.2674 25.743 18.4148 25.7437 18.5569 25.7759C18.699 25.8081 18.8323 25.8709 18.9475 25.96C19.8204 26.6377 20.895 27.0038 22 27C23.3261 27 24.5979 26.4732 25.5356 25.5355C26.4733 24.5978 27 23.3261 27 22Z" fill="#333333"/>
</svg>
