<svg width="32" height="32" viewBox="0 0 32 32" fill="none" xmlns="http://www.w3.org/2000/svg">
<path opacity="0.2" d="M28 19C28 19.7956 27.6839 20.5587 27.1213 21.1213C26.5587 21.6839 25.7956 22 25 22H19C19.7956 22 20.5587 22.3161 21.1213 22.8787C21.6839 23.4413 22 24.2044 22 25C22 25.7956 21.6839 26.5587 21.1213 27.1213C20.5587 27.6839 19.7956 28 19 28C18.2044 28 17.4413 27.6839 16.8787 27.1213C16.3161 26.5587 16 25.7956 16 25V22H19C18.2044 22 17.4413 21.6839 16.8787 21.1213C16.3161 20.5587 16 19.7956 16 19V16H25C25.7956 16 26.5587 16.3161 27.1213 16.8787C27.6839 17.4413 28 18.2044 28 19ZM13 10H16V7C16 6.20435 15.6839 5.44129 15.1213 4.87868C14.5587 4.31607 13.7956 4 13 4C12.2044 4 11.4413 4.31607 10.8787 4.87868C10.3161 5.44129 10 6.20435 10 7C10 7.79565 10.3161 8.55871 10.8787 9.12132C11.4413 9.68393 12.2044 10 13 10H7C6.20435 10 5.44129 10.3161 4.87868 10.8787C4.31607 11.4413 4 12.2044 4 13C4 13.7956 4.31607 14.5587 4.87868 15.1213C5.44129 15.6839 6.20435 16 7 16H16V13C16 12.2044 15.6839 11.4413 15.1213 10.8787C14.5587 10.3161 13.7956 10 13 10Z" fill="#333333"/>
<path d="M27.6416 16C28.3787 15.3423 28.8464 14.4351 28.9545 13.4532C29.0627 12.4713 28.8036 11.4841 28.2273 10.6817C27.651 9.87942 26.7981 9.31874 25.8331 9.1077C24.868 8.89667 23.859 9.05022 23.0004 9.53877V7.00002C22.9995 6.18792 22.7514 5.39533 22.2891 4.72763C21.8269 4.05993 21.1723 3.54876 20.4125 3.26206C19.6527 2.97537 18.8236 2.92674 18.0355 3.12264C17.2474 3.31854 16.5375 3.74969 16.0004 4.35877C15.3427 3.62166 14.4355 3.15399 13.4536 3.04586C12.4717 2.93773 11.4844 3.19677 10.6821 3.7731C9.87978 4.34943 9.3191 5.20227 9.10807 6.16733C8.89704 7.13239 9.05059 8.14141 9.53913 9.00002H7.00039C6.18828 9.00093 5.3957 9.24901 4.728 9.71128C4.0603 10.1735 3.54912 10.8281 3.26243 11.5879C2.97574 12.3477 2.92711 13.1768 3.12301 13.9649C3.31891 14.753 3.75006 15.4629 4.35914 16C3.62203 16.6577 3.15436 17.5649 3.04623 18.5468C2.93809 19.5288 3.19714 20.516 3.77347 21.3183C4.3498 22.1206 5.20263 22.6813 6.1677 22.8923C7.13276 23.1034 8.14178 22.9498 9.00039 22.4613V25C9.0013 25.8121 9.24938 26.6047 9.71165 27.2724C10.1739 27.9401 10.8285 28.4513 11.5883 28.738C12.3481 29.0247 13.1772 29.0733 13.9653 28.8774C14.7534 28.6815 15.4632 28.2503 16.0004 27.6413C16.6581 28.3784 17.5653 28.846 18.5472 28.9542C19.5291 29.0623 20.5163 28.8033 21.3187 28.2269C22.121 27.6506 22.6817 26.7978 22.8927 25.8327C23.1037 24.8676 22.9502 23.8586 22.4616 23H25.0004C25.8125 22.9991 26.6051 22.751 27.2728 22.2888C27.9405 21.8265 28.4516 21.1719 28.7383 20.4121C29.025 19.6523 29.0737 18.8232 28.8778 18.0351C28.6819 17.247 28.2507 16.5372 27.6416 16ZM25.0004 11C25.5308 11 26.0395 11.2107 26.4146 11.5858C26.7897 11.9609 27.0004 12.4696 27.0004 13C27.0004 13.5305 26.7897 14.0392 26.4146 14.4142C26.0395 14.7893 25.5308 15 25.0004 15H23.0004V13C23.0004 12.4696 23.2111 11.9609 23.5862 11.5858C23.9612 11.2107 24.47 11 25.0004 11ZM19.0004 5.00002C19.5308 5.00002 20.0395 5.21073 20.4146 5.58581C20.7897 5.96088 21.0004 6.46959 21.0004 7.00002V13C21.0004 13.5305 20.7897 14.0392 20.4146 14.4142C20.0395 14.7893 19.5308 15 19.0004 15H17.0004V7.00002C17.0004 6.46959 17.2111 5.96088 17.5862 5.58581C17.9612 5.21073 18.47 5.00002 19.0004 5.00002ZM11.0004 7.00002C11.0004 6.46959 11.2111 5.96088 11.5862 5.58581C11.9612 5.21073 12.47 5.00002 13.0004 5.00002C13.5308 5.00002 14.0395 5.21073 14.4146 5.58581C14.7897 5.96088 15.0004 6.46959 15.0004 7.00002V9.00002H13.0004C12.47 9.00002 11.9612 8.78931 11.5862 8.41423C11.2111 8.03916 11.0004 7.53045 11.0004 7.00002ZM5.00039 13C5.00039 12.4696 5.2111 11.9609 5.58617 11.5858C5.96124 11.2107 6.46995 11 7.00039 11H13.0004C13.5308 11 14.0395 11.2107 14.4146 11.5858C14.7897 11.9609 15.0004 12.4696 15.0004 13V15H7.00039C6.46995 15 5.96124 14.7893 5.58617 14.4142C5.2111 14.0392 5.00039 13.5305 5.00039 13ZM7.00039 21C6.46995 21 5.96124 20.7893 5.58617 20.4142C5.2111 20.0392 5.00039 19.5305 5.00039 19C5.00039 18.4696 5.2111 17.9609 5.58617 17.5858C5.96124 17.2107 6.46995 17 7.00039 17H9.00039V19C9.00039 19.5305 8.78967 20.0392 8.4146 20.4142C8.03953 20.7893 7.53082 21 7.00039 21ZM13.0004 27C12.47 27 11.9612 26.7893 11.5862 26.4142C11.2111 26.0392 11.0004 25.5305 11.0004 25V19C11.0004 18.4696 11.2111 17.9609 11.5862 17.5858C11.9612 17.2107 12.47 17 13.0004 17H15.0004V25C15.0004 25.5305 14.7897 26.0392 14.4146 26.4142C14.0395 26.7893 13.5308 27 13.0004 27ZM21.0004 25C21.0004 25.5305 20.7897 26.0392 20.4146 26.4142C20.0395 26.7893 19.5308 27 19.0004 27C18.47 27 17.9612 26.7893 17.5862 26.4142C17.2111 26.0392 17.0004 25.5305 17.0004 25V23H19.0004C19.5308 23 20.0395 23.2107 20.4146 23.5858C20.7897 23.9609 21.0004 24.4696 21.0004 25ZM25.0004 21H19.0004C18.47 21 17.9612 20.7893 17.5862 20.4142C17.2111 20.0392 17.0004 19.5305 17.0004 19V17H25.0004C25.5308 17 26.0395 17.2107 26.4146 17.5858C26.7897 17.9609 27.0004 18.4696 27.0004 19C27.0004 19.5305 26.7897 20.0392 26.4146 20.4142C26.0395 20.7893 25.5308 21 25.0004 21Z" fill="#333333"/>
</svg>
