<svg width="32" height="32" viewBox="0 0 32 32" fill="none" xmlns="http://www.w3.org/2000/svg">
<g clip-path="url(#clip0_2129_588)">
<path opacity="0.2" fill-rule="evenodd" clip-rule="evenodd" d="M5.64949 14.6101C12.0921 11.7873 16.3878 9.92709 18.5373 9.02781C24.6752 6.46103 25.9502 6.01486 26.7816 6.0001C26.9646 5.9975 27.3729 6.04264 27.6379 6.25878C27.8615 6.44107 27.9228 6.68759 27.9522 6.86033C27.9815 7.03393 28.0186 7.42715 27.9893 7.73531C27.6569 11.2491 26.2178 19.7758 25.4858 23.7115C25.1759 25.3772 24.5655 25.9354 23.9751 25.9901C22.6922 26.109 21.7176 25.1368 20.4745 24.3174C18.5295 23.0361 17.4306 22.2376 15.5426 20.9867C13.3602 19.5406 14.7752 18.7463 16.0183 17.4477C16.3437 17.1075 21.9982 11.9357 22.1078 11.467C22.1216 11.408 22.1346 11.1892 22.0051 11.0738C21.8756 10.9583 21.6848 10.9982 21.5475 11.0295C21.3524 11.0738 18.2455 13.1388 12.2259 17.2247C11.3436 17.834 10.5443 18.13 9.8286 18.1153C9.03957 18.0979 7.52193 17.6665 6.39363 17.2976C5.00981 16.8453 3.91 16.6057 4.00582 15.8375C4.05503 15.4374 4.60321 15.0285 5.64949 14.6101Z" fill="#333333"/>
<path d="M26.7676 5C26.9357 4.99763 27.1669 5.01633 27.4121 5.0752C27.6213 5.12544 27.8981 5.21866 28.1592 5.40039L28.2695 5.4834L28.3613 5.56348C28.6824 5.86293 28.823 6.21312 28.8896 6.46484L28.9385 6.69238V6.69336C28.977 6.92142 29.0246 7.40748 28.9844 7.83008C28.6471 11.395 27.2001 19.9626 26.4688 23.8945C26.1417 25.6521 25.3767 26.864 24.0674 26.9854C23.129 27.0723 22.3477 26.7483 21.7012 26.3662C21.3807 26.1768 21.0712 25.96 20.7842 25.7549C20.4873 25.5427 20.2143 25.3438 19.9238 25.1523V25.1514C18.9439 24.5058 18.1763 23.9824 17.4219 23.4658C17.0446 23.2075 16.671 22.9509 16.2744 22.6816L14.9902 21.8203C14.3921 21.424 13.9046 20.9882 13.6338 20.4668C13.3261 19.8742 13.3529 19.2801 13.5791 18.7617C13.7757 18.3111 14.116 17.9345 14.3975 17.6465C14.5458 17.4947 14.707 17.3393 14.8555 17.1953C15.0082 17.0471 15.1545 16.9035 15.2959 16.7559C15.4085 16.6384 16.0183 16.0676 16.7998 15.3359C15.6513 16.1098 14.3157 17.0133 12.793 18.0469L12.7939 18.0479C11.8193 18.7209 10.8134 19.136 9.80762 19.1152H9.80664C9.29027 19.1039 8.61905 18.9652 7.99414 18.8076C7.3459 18.6441 6.66092 18.437 6.08301 18.248C5.46893 18.0474 4.72543 17.8376 4.20703 17.585C3.93536 17.4526 3.6117 17.2586 3.36621 16.9551C3.08937 16.6128 2.95509 16.1837 3.01367 15.7139C3.08902 15.1065 3.50718 14.6897 3.85547 14.4297C4.22285 14.1554 4.70176 13.9145 5.24805 13.6943C11.6894 10.872 15.9928 9.00851 18.1514 8.10547L20.2354 7.23828C22.1128 6.46226 23.3952 5.94981 24.3066 5.61719C25.5043 5.18014 26.1674 5.01061 26.7637 5H26.7676Z" stroke="#333333" stroke-width="2"/>
</g>
<defs>
<clipPath id="clip0_2129_588">
<rect width="32" height="32" fill="white"/>
</clipPath>
</defs>
</svg>
