<svg width="32" height="32" viewBox="0 0 32 32" fill="none" xmlns="http://www.w3.org/2000/svg">
<path d="M14.9788 7C14.3909 6.0801 13.5809 5.32307 12.6234 4.79876C11.6658 4.27445 10.5917 3.99974 9.5 4C9.0144 4.83956 8.72314 5.77729 8.64765 6.74423C8.57215 7.71117 8.71434 8.68274 9.06375 9.5875C8.37968 10.5949 8.00951 11.7824 8 13V14C8 15.5913 8.63214 17.1174 9.75736 18.2426C10.8826 19.3679 12.4087 20 14 20H20C21.5913 20 23.1174 19.3679 24.2426 18.2426C25.3679 17.1174 26 15.5913 26 14V13C25.9905 11.7824 25.6203 10.5949 24.9363 9.5875C25.2857 8.68274 25.4278 7.71117 25.3524 6.74423C25.2769 5.77729 24.9856 4.83956 24.5 4C23.4083 3.99974 22.3342 4.27445 21.3766 4.79876C20.4191 5.32307 19.6091 6.0801 19.0212 7H14.9788Z" stroke="#333333" stroke-width="2" stroke-linecap="round" stroke-linejoin="round"/>
<path d="M13 29V24C13 22.9391 13.4214 21.9217 14.1716 21.1716C14.9217 20.4214 15.9391 20 17 20C18.0609 20 19.0783 20.4214 19.8284 21.1716C20.5786 21.9217 21 22.9391 21 24V29" stroke="#333333" stroke-width="2" stroke-linecap="round" stroke-linejoin="round"/>
<path d="M12.1457 26.7355L13.1064 26.4581L12.5516 24.5366L11.5909 24.814L11.8683 25.7748L12.1457 26.7355ZM9.38134 25.5195L8.54077 26.0612L9.38134 25.5195ZM9.58556 23.53L8.67547 23.9444L9.58556 23.53ZM6.53944 21.7327C5.99069 21.795 5.59635 22.2904 5.65868 22.8391C5.721 23.3879 6.21638 23.7822 6.76513 23.7199L6.65229 22.7263L6.53944 21.7327ZM11.8683 25.7748C11.5909 24.814 11.5911 24.814 11.5913 24.8139C11.5913 24.8139 11.5915 24.8139 11.5916 24.8138C11.5919 24.8138 11.5921 24.8137 11.5922 24.8136C11.5926 24.8135 11.5928 24.8135 11.5929 24.8134C11.5932 24.8134 11.593 24.8134 11.5923 24.8136C11.591 24.814 11.588 24.8148 11.5834 24.8161C11.5741 24.8186 11.5584 24.8228 11.537 24.8282C11.4941 24.8391 11.4294 24.8547 11.349 24.8716C11.1854 24.9058 10.9717 24.9421 10.7535 24.9573C10.5264 24.9732 10.3463 24.9622 10.2282 24.9337C10.1082 24.9046 10.1633 24.8869 10.2219 24.9778L9.38134 25.5195L8.54077 26.0612C8.86382 26.5625 9.36198 26.7818 9.75791 26.8776C10.1557 26.9738 10.5642 26.9754 10.8927 26.9525C11.2302 26.9289 11.539 26.8752 11.7591 26.8291C11.8706 26.8057 11.963 26.7835 12.0292 26.7667C12.0624 26.7583 12.0893 26.7512 12.1089 26.7458C12.1187 26.7431 12.1268 26.7409 12.133 26.7392C12.136 26.7383 12.1386 26.7376 12.1408 26.7369C12.1418 26.7366 12.1428 26.7364 12.1436 26.7361C12.144 26.736 12.1444 26.7359 12.1447 26.7358C12.1449 26.7358 12.1452 26.7357 12.1452 26.7357C12.1455 26.7356 12.1457 26.7355 11.8683 25.7748ZM9.38134 25.5195L10.2219 24.9778C10.3392 25.1598 10.1837 25.3497 10.3607 24.9496C10.4584 24.7288 10.8759 23.9507 10.4956 23.1156L9.58556 23.53L8.67547 23.9444C8.61885 23.8201 8.72276 23.7085 8.53163 24.1406C8.41981 24.3934 8.00043 25.2228 8.54077 26.0612L9.38134 25.5195ZM9.58556 23.53L10.4956 23.1156C10.23 22.5322 9.73458 22.2072 9.30898 22.0273C8.88087 21.8463 8.41829 21.7654 8.03183 21.7275C7.63685 21.6888 7.2683 21.6904 7.00295 21.7006C6.86877 21.7057 6.75734 21.7133 6.67762 21.7197C6.63769 21.7229 6.60549 21.7259 6.58214 21.7282C6.57046 21.7293 6.56097 21.7303 6.55381 21.7311C6.55023 21.7315 6.54724 21.7318 6.54484 21.7321C6.54364 21.7322 6.54258 21.7323 6.54168 21.7324C6.54124 21.7325 6.54082 21.7325 6.54045 21.7325C6.54026 21.7326 6.54001 21.7326 6.53992 21.7326C6.53968 21.7326 6.53944 21.7327 6.65229 22.7263C6.76513 23.7199 6.76492 23.7199 6.76471 23.7199C6.76466 23.7199 6.76446 23.72 6.76435 23.72C6.76412 23.72 6.76393 23.72 6.76378 23.72C6.76347 23.7201 6.76331 23.7201 6.76328 23.7201C6.76323 23.7201 6.76374 23.72 6.7648 23.7199C6.76691 23.7197 6.77119 23.7193 6.7775 23.7186C6.79015 23.7174 6.81088 23.7155 6.83865 23.7132C6.89435 23.7087 6.97748 23.703 7.07984 23.6991C7.28756 23.6911 7.56004 23.6909 7.83684 23.718C8.12217 23.746 8.36215 23.7984 8.53017 23.8694C8.70071 23.9415 8.69499 23.9873 8.67547 23.9444L9.58556 23.53Z" fill="#333333"/>
</svg>
