<svg width="32" height="32" viewBox="0 0 32 32" fill="none" xmlns="http://www.w3.org/2000/svg">
<path d="M27.6416 16C28.3787 15.3423 28.8464 14.4351 28.9545 13.4532C29.0627 12.4713 28.8036 11.4841 28.2273 10.6817C27.651 9.87942 26.7981 9.31874 25.8331 9.1077C24.868 8.89667 23.859 9.05022 23.0004 9.53877V7.00002C22.9995 6.18792 22.7514 5.39533 22.2891 4.72763C21.8269 4.05993 21.1723 3.54876 20.4125 3.26206C19.6527 2.97537 18.8236 2.92674 18.0355 3.12264C17.2474 3.31854 16.5375 3.74969 16.0004 4.35877C15.3427 3.62166 14.4355 3.15399 13.4536 3.04586C12.4717 2.93773 11.4844 3.19677 10.6821 3.7731C9.87978 4.34943 9.3191 5.20227 9.10807 6.16733C8.89704 7.13239 9.05059 8.14141 9.53913 9.00002H7.00039C6.18828 9.00093 5.3957 9.24901 4.728 9.71128C4.0603 10.1735 3.54912 10.8281 3.26243 11.5879C2.97574 12.3477 2.92711 13.1768 3.12301 13.9649C3.31891 14.753 3.75006 15.4629 4.35914 16C3.62203 16.6577 3.15436 17.5649 3.04623 18.5468C2.93809 19.5288 3.19714 20.516 3.77347 21.3183C4.3498 22.1206 5.20263 22.6813 6.1677 22.8923C7.13276 23.1034 8.14178 22.9498 9.00039 22.4613V25C9.0013 25.8121 9.24938 26.6047 9.71165 27.2724C10.1739 27.9401 10.8285 28.4513 11.5883 28.738C12.3481 29.0247 13.1772 29.0733 13.9653 28.8774C14.7534 28.6815 15.4632 28.2503 16.0004 27.6413C16.6581 28.3784 17.5653 28.846 18.5472 28.9542C19.5291 29.0623 20.5163 28.8033 21.3187 28.2269C22.121 27.6506 22.6817 26.7978 22.8927 25.8327C23.1037 24.8676 22.9502 23.8586 22.4616 23H25.0004C25.8125 22.9991 26.6051 22.751 27.2728 22.2888C27.9405 21.8265 28.4516 21.1719 28.7383 20.4121C29.025 19.6523 29.0737 18.8232 28.8778 18.0351C28.6819 17.247 28.2507 16.5372 27.6416 16ZM9.00039 19C9.00039 19.3956 8.88309 19.7823 8.66332 20.1112C8.44356 20.4401 8.1312 20.6964 7.76575 20.8478C7.4003 20.9992 6.99817 21.0388 6.6102 20.9616C6.22224 20.8844 5.86588 20.6939 5.58617 20.4142C5.30647 20.1345 5.11598 19.7782 5.03881 19.3902C4.96164 19.0022 5.00125 18.6001 5.15263 18.2347C5.304 17.8692 5.56035 17.5568 5.88924 17.3371C6.21814 17.1173 6.60482 17 7.00039 17H9.00039V19ZM15.0004 25C15.0004 25.5305 14.7897 26.0392 14.4146 26.4142C14.0395 26.7893 13.5308 27 13.0004 27C12.47 27 11.9612 26.7893 11.5862 26.4142C11.2111 26.0392 11.0004 25.5305 11.0004 25V19C11.0004 18.4696 11.2111 17.9609 11.5862 17.5858C11.9612 17.2107 12.47 17 13.0004 17H15.0004V25ZM15.0004 15H7.00039C6.46995 15 5.96124 14.7893 5.58617 14.4142C5.2111 14.0392 5.00039 13.5305 5.00039 13C5.00039 12.4696 5.2111 11.9609 5.58617 11.5858C5.96124 11.2107 6.46995 11 7.00039 11H13.0004C13.5308 11 14.0395 11.2107 14.4146 11.5858C14.7897 11.9609 15.0004 12.4696 15.0004 13V15ZM15.0004 9.00002H13.0004C12.6048 9.00002 12.2181 8.88272 11.8892 8.66296C11.5603 8.4432 11.304 8.13084 11.1526 7.76539C11.0013 7.39993 10.9616 6.9978 11.0388 6.60984C11.116 6.22188 11.3065 5.86551 11.5862 5.58581C11.8659 5.3061 12.2222 5.11562 12.6102 5.03845C12.9982 4.96128 13.4003 5.00088 13.7658 5.15226C14.1312 5.30363 14.4436 5.55998 14.6633 5.88888C14.8831 6.21778 15.0004 6.60446 15.0004 7.00002V9.00002ZM17.0004 7.00002C17.0004 6.46959 17.2111 5.96088 17.5862 5.58581C17.9612 5.21073 18.47 5.00002 19.0004 5.00002C19.5308 5.00002 20.0395 5.21073 20.4146 5.58581C20.7897 5.96088 21.0004 6.46959 21.0004 7.00002V13C21.0004 13.5305 20.7897 14.0392 20.4146 14.4142C20.0395 14.7893 19.5308 15 19.0004 15H17.0004V7.00002ZM19.0004 27C18.47 27 17.9612 26.7893 17.5862 26.4142C17.2111 26.0392 17.0004 25.5305 17.0004 25V23H19.0004C19.5308 23 20.0395 23.2107 20.4146 23.5858C20.7897 23.9609 21.0004 24.4696 21.0004 25C21.0004 25.5305 20.7897 26.0392 20.4146 26.4142C20.0395 26.7893 19.5308 27 19.0004 27ZM25.0004 21H19.0004C18.47 21 17.9612 20.7893 17.5862 20.4142C17.2111 20.0392 17.0004 19.5305 17.0004 19V17H25.0004C25.5308 17 26.0395 17.2107 26.4146 17.5858C26.7897 17.9609 27.0004 18.4696 27.0004 19C27.0004 19.5305 26.7897 20.0392 26.4146 20.4142C26.0395 20.7893 25.5308 21 25.0004 21ZM25.0004 15H23.0004V13C23.0004 12.6045 23.1177 12.2178 23.3374 11.8889C23.5572 11.56 23.8696 11.3036 24.235 11.1523C24.6005 11.0009 25.0026 10.9613 25.3906 11.0384C25.7785 11.1156 26.1349 11.3061 26.4146 11.5858C26.6943 11.8655 26.8848 12.2219 26.962 12.6098C27.0391 12.9978 26.9995 13.3999 26.8481 13.7654C26.6968 14.1308 26.4404 14.4432 26.1115 14.663C25.7826 14.8827 25.3959 15 25.0004 15Z" fill="#333333"/>
</svg>
