<svg width="32" height="32" viewBox="0 0 32 32" fill="none" xmlns="http://www.w3.org/2000/svg">
<g clip-path="url(#clip0_2118_610)">
<path d="M26.7676 5C26.9357 4.99763 27.1669 5.01633 27.4121 5.0752C27.6213 5.12544 27.8981 5.21866 28.1592 5.40039L28.2695 5.4834L28.3613 5.56348C28.6824 5.86293 28.823 6.21312 28.8896 6.46484L28.9385 6.69238V6.69336C28.977 6.92142 29.0246 7.40748 28.9844 7.83008C28.6471 11.395 27.2001 19.9626 26.4688 23.8945C26.1417 25.6521 25.3767 26.864 24.0674 26.9854C23.129 27.0723 22.3477 26.7483 21.7012 26.3662C21.3807 26.1768 21.0712 25.96 20.7842 25.7549C20.4873 25.5427 20.2143 25.3438 19.9238 25.1523V25.1514C18.9439 24.5058 18.1763 23.9824 17.4219 23.4658C17.0446 23.2075 16.671 22.9509 16.2744 22.6816L14.9902 21.8203C14.3921 21.424 13.9046 20.9882 13.6338 20.4668C13.3261 19.8742 13.3529 19.2801 13.5791 18.7617C13.7757 18.3111 14.116 17.9345 14.3975 17.6465C14.5458 17.4947 14.707 17.3393 14.8555 17.1953C15.0082 17.0471 15.1545 16.9035 15.2959 16.7559C15.4085 16.6384 16.0183 16.0676 16.7998 15.3359C15.6513 16.1098 14.3157 17.0133 12.793 18.0469L12.7939 18.0479C11.8193 18.7209 10.8134 19.136 9.80762 19.1152H9.80664C9.29027 19.1039 8.61905 18.9652 7.99414 18.8076C7.3459 18.6441 6.66092 18.437 6.08301 18.248C5.46893 18.0474 4.72543 17.8376 4.20703 17.585C3.93536 17.4526 3.6117 17.2586 3.36621 16.9551C3.08937 16.6128 2.95509 16.1837 3.01367 15.7139C3.08902 15.1065 3.50718 14.6897 3.85547 14.4297C4.22285 14.1554 4.70176 13.9145 5.24805 13.6943C11.6894 10.872 15.9928 9.00851 18.1514 8.10547L20.2354 7.23828C22.1128 6.46226 23.3952 5.94981 24.3066 5.61719C25.5043 5.18014 26.1674 5.01061 26.7637 5H26.7676Z" stroke="#333333" stroke-width="2"/>
</g>
<defs>
<clipPath id="clip0_2118_610">
<rect width="32" height="32" fill="white"/>
</clipPath>
</defs>
</svg>
